<svg xmlns="http://www.w3.org/2000/svg" xmlns:xlink="http://www.w3.org/1999/xlink" contentStyleType="text/css" height="497px" preserveAspectRatio="none" style="width:1042px;height:497px;background:#FFFFFF;" version="1.1" viewBox="0 0 1042 497" width="1042px" zoomAndPan="magnify"><defs/><g><!--cluster Shipping System--><g id="cluster_Shipping System"><rect fill="none" height="281" rx="2.5" ry="2.5" style="stroke:#181818;stroke-width:1;" width="733" x="182" y="7"/><text fill="#000000" font-family="sans-serif" font-size="14" font-weight="bold" lengthAdjust="spacing" textLength="132.8701" x="482.0649" y="21.9951">Shipping System</text></g><g id="elem_UC1"><ellipse cx="321.8943" cy="68.9789" fill="#ADD8E6" rx="120.3943" ry="26.4789" style="stroke:#000000;stroke-width:0.5;"/><text fill="#000000" font-family="sans-serif" font-size="14" lengthAdjust="spacing" textLength="208.1953" x="217.7966" y="71.8255">Create new shipment request</text></g><g id="elem_UC2"><ellipse cx="779.8116" cy="237.1623" fill="#ADD8E6" rx="118.8116" ry="26.1623" style="stroke:#000000;stroke-width:0.5;"/><text fill="#000000" font-family="sans-serif" font-size="14" lengthAdjust="spacing" textLength="110.291" x="724.6661" y="231.8606">Track Shipment</text><text fill="#000000" font-family="sans-serif" font-size="14" lengthAdjust="spacing" textLength="152.5918" x="703.5157" y="248.1574">(View delivery status)</text></g><g id="elem_UC3"><ellipse cx="321.8685" cy="158.1737" fill="#ADD8E6" rx="123.8685" ry="27.1737" style="stroke:#000000;stroke-width:0.5;"/><text fill="#000000" font-family="sans-serif" font-size="14" lengthAdjust="spacing" textLength="124.168" x="259.7845" y="152.8719">Generate Reports</text><text fill="#000000" font-family="sans-serif" font-size="14" lengthAdjust="spacing" textLength="166.5439" x="238.5965" y="169.1688">(View system analytics)</text></g><g id="elem_UC4"><ellipse cx="322.0183" cy="246.0473" fill="#ADD8E6" rx="97.0183" ry="26.0473" style="stroke:#000000;stroke-width:0.5;"/><text fill="#000000" font-family="sans-serif" font-size="14" lengthAdjust="spacing" textLength="113.1826" x="265.427" y="240.7455">Deliver Package</text><text fill="#000000" font-family="sans-serif" font-size="14" lengthAdjust="spacing" textLength="120.9619" x="261.5373" y="257.0424">(Handle delivery)</text></g><g id="elem_UC5"><ellipse cx="779.9503" cy="149.2144" fill="#ADD8E6" rx="101.9503" ry="26.2144" style="stroke:#000000;stroke-width:0.5;"/><text fill="#000000" font-family="sans-serif" font-size="14" lengthAdjust="spacing" textLength="126.9297" x="713.4855" y="144.8135">Manage Inventory</text><text fill="#000000" font-family="sans-serif" font-size="14" lengthAdjust="spacing" textLength="102.9561" x="725.4723" y="161.1103">(Stock control)</text></g><!--entity Admin--><g id="elem_Admin"><ellipse cx="70.4731" cy="100" fill="#F1F1F1" rx="8" ry="8" style="stroke:#181818;stroke-width:0.5;"/><path d="M70.4731,108 L70.4731,135 M57.4731,116 L83.4731,116 M70.4731,135 L57.4731,150 M70.4731,135 L83.4731,150 " fill="none" style="stroke:#181818;stroke-width:0.5;"/><text fill="#000000" font-family="sans-serif" font-size="14" lengthAdjust="spacing" textLength="44.8643" x="6" y="164.4951">Admin</text><text fill="#000000" font-family="sans-serif" font-size="14" lengthAdjust="spacing" textLength="128.9463" x="6" y="180.792">(System Manager)</text></g><!--entity DeliveryGuy--><g id="elem_DeliveryGuy"><ellipse cx="70.2847" cy="228" fill="#F1F1F1" rx="8" ry="8" style="stroke:#181818;stroke-width:0.5;"/><path d="M70.2847,236 L70.2847,263 M57.2847,244 L83.2847,244 M70.2847,263 L57.2847,278 M70.2847,263 L83.2847,278 " fill="none" style="stroke:#181818;stroke-width:0.5;"/><text fill="#000000" font-family="sans-serif" font-size="14" lengthAdjust="spacing" textLength="90.5693" x="25" y="292.4951">Delivery Guy</text><text fill="#000000" font-family="sans-serif" font-size="14" lengthAdjust="spacing" textLength="81.5186" x="25" y="308.792">(Field Staff)</text></g><!--entity WarehouseStaff--><g id="elem_WarehouseStaff"><ellipse cx="322.0786" cy="316" fill="#F1F1F1" rx="8" ry="8" style="stroke:#181818;stroke-width:0.5;"/><path d="M322.0786,324 L322.0786,351 M309.0786,332 L335.0786,332 M322.0786,351 L309.0786,366 M322.0786,351 L335.0786,366 " fill="none" style="stroke:#181818;stroke-width:0.5;"/><text fill="#000000" font-family="sans-serif" font-size="14" lengthAdjust="spacing" textLength="116.2725" x="255.5" y="380.4951">Warehouse Staff</text><text fill="#000000" font-family="sans-serif" font-size="14" lengthAdjust="spacing" textLength="133.1572" x="255.5" y="396.792">(Inventory Control)</text></g><!--entity Customer--><g id="elem_Customer"><ellipse cx="998.9448" cy="116" fill="#F1F1F1" rx="8" ry="8" style="stroke:#181818;stroke-width:0.5;"/><path d="M998.9448,124 L998.9448,151 M985.9448,132 L1011.9448,132 M998.9448,151 L985.9448,166 M998.9448,151 L1011.9448,166 " fill="none" style="stroke:#181818;stroke-width:0.5;"/><text fill="#000000" font-family="sans-serif" font-size="14" lengthAdjust="spacing" textLength="68.0039" x="962" y="180.4951">Customer</text><text fill="#000000" font-family="sans-serif" font-size="14" lengthAdjust="spacing" textLength="73.8896" x="962" y="196.792">(End User)</text></g><g id="elem_GMN19"><path d="M212.5,435.5 L212.5,490.8984 L431.4453,490.8984 L431.4453,445.5 L421.4453,435.5 L212.5,435.5 " fill="#FEFFDD" style="stroke:#181818;stroke-width:0.5;"/><path d="M421.4453,435.5 L421.4453,445.5 L431.4453,445.5 L421.4453,435.5 " fill="#FEFFDD" style="stroke:#181818;stroke-width:1;"/><text fill="#000000" font-family="sans-serif" font-size="13" lengthAdjust="spacing" textLength="197.9453" x="218.5" y="452.5669">System automatically updates</text><text fill="#000000" font-family="sans-serif" font-size="13" lengthAdjust="spacing" textLength="148.5605" x="218.5" y="467.6997">tracking information in</text><text fill="#000000" font-family="sans-serif" font-size="13" lengthAdjust="spacing" textLength="58.9824" x="218.5" y="482.8325">real-time</text></g><!--link Admin to UC3--><g id="link_Admin_UC3"><path d="M135.1,143.1 C156.47,144.81 175.0391,146.301 199.1391,148.231 " fill="none" id="Admin-to-UC3" style="stroke:#000000;stroke-width:1;"/><polygon fill="#000000" points="205.12,148.71,196.468,144.0043,200.136,148.3109,195.8294,151.9788,205.12,148.71" style="stroke:#000000;stroke-width:1;"/></g><!--link DeliveryGuy to UC4--><g id="link_DeliveryGuy_UC4"><path d="M116.11,262.42 C147.36,259.92 184.2791,256.9588 222.7491,253.8788 " fill="none" id="DeliveryGuy-to-UC4" style="stroke:#000000;stroke-width:1;"/><polygon fill="#000000" points="228.73,253.4,219.4395,250.131,223.7459,253.799,220.0779,258.1055,228.73,253.4" style="stroke:#000000;stroke-width:1;"/></g><!--link WarehouseStaff to UC5--><g id="link_WarehouseStaff_UC5"><path d="M388.71,346.61 C456.38,335.95 561.51,310.5 631,251 C653.05,232.12 639.28,212.25 661,193 C673.76,181.69 684.1243,175.4063 700.1243,169.0463 " fill="none" id="WarehouseStaff-to-UC5" style="stroke:#000000;stroke-width:1;"/><polygon fill="#000000" points="705.7,166.83,695.859,166.4374,701.0536,168.6769,698.8141,173.8716,705.7,166.83" style="stroke:#000000;stroke-width:1;"/></g><!--reverse link UC1 to Customer--><g id="link_UC1_Customer"><path d="M439.7293,58.6117 C562.5993,51.2617 759.15,50.82 923,105 C936.59,109.49 950.09,117.08 961.82,124.97 " fill="none" id="UC1-backto-Customer" style="stroke:#000000;stroke-width:1;"/><polygon fill="#000000" points="433.74,58.97,442.9628,62.4254,438.7311,58.6714,442.4851,54.4397,433.74,58.97" style="stroke:#000000;stroke-width:1;"/></g><!--reverse link UC2 to Customer--><g id="link_UC2_Customer"><path d="M859.4077,214.663 C881.9077,207.643 900.86,201.05 923,192 C935.97,186.7 949.76,180.03 961.93,173.76 " fill="none" id="UC2-backto-Customer" style="stroke:#000000;stroke-width:1;"/><polygon fill="#000000" points="853.68,216.45,863.4629,217.5879,858.4531,214.9608,861.0802,209.951,853.68,216.45" style="stroke:#000000;stroke-width:1;"/></g><!--link UC4 to UC2--><g id="link_UC4_UC2"><path d="M418.87,244.11 C489.53,242.71 580.0512,240.9287 655.3812,239.4387 " fill="none" id="UC4-to-UC2" style="stroke:#000000;stroke-width:1;stroke-dasharray:7.0,7.0;"/><polygon fill="#000000" points="661.38,239.32,652.3027,235.4988,656.381,239.4189,652.4609,243.4972,661.38,239.32" style="stroke:#000000;stroke-width:1;"/><text fill="#000000" font-family="sans-serif" font-size="13" lengthAdjust="spacing" textLength="153.9751" x="477" y="237.0669">updates tracking status</text></g><!--link UC1 to UC5--><g id="link_UC1_UC5"><path d="M390.21,90.87 C416.7,98.83 447.55,107.26 476,113 C544.28,126.78 616.3963,135.3385 676.1863,140.9585 " fill="none" id="UC1-to-UC5" style="stroke:#000000;stroke-width:1;stroke-dasharray:7.0,7.0;"/><polygon fill="#000000" points="682.16,141.52,673.5738,136.6953,677.1819,141.0521,672.8252,144.6602,682.16,141.52" style="stroke:#000000;stroke-width:1;"/><text fill="#000000" font-family="sans-serif" font-size="13" lengthAdjust="spacing" textLength="151.9565" x="478" y="109.0669">affects inventory levels</text></g><!--link GMN19 to UC2--><g id="link_GMN19_UC2"><path d="M401.12,435.49 C416.1,429.91 431.6,423.93 446,418 C529.67,383.54 551.72,376.62 631,333 C670.85,311.07 714.26,282.28 743.7,261.97 " fill="none" id="GMN19-UC2" style="stroke:#000000;stroke-width:1;stroke-dasharray:7.0,7.0;"/></g><!--SRC=[NLF1ZjCm4BtdAqQzm1ww4ilsWX1IoSB20GbH2XSktdYIMklOOJnf5I7-dR4TjmqvH95ddj-RzoOMMmRsGAOxC6X3sB3nhgfUm0EsnY6eXZr1O2JqF0qOgl1itA18zRcsuyaYQ6pLQFcgE0PiL43uKu4yxrNpt94VdQwzbGjj97oo8-Qg9usKAqzMMjFfbiYVhW___gyhmCdmGSX3GsQ8oaEL1Q-skZVkbtkvcqHx3r-KKntIpGfKW5GhZGzepH5fWiTnalwF1gs67QkspSsbBkK2-Qa83ru6p7s2-koEwAGsGUqTaxSPUsvCVGLUZu5zZoIu3qx3FXHTfN0rPYI9DeOgHgDS9rwlTWSp3CPra8TRpHuNnrSreM84XoS8qjgBD23yFMBWnBElNoq1tqdiXTtSAxf-6C7guanWnMEucR5tI-mZEgH8zmq7JnmAEcJZnNSxiMdEyDTB-6mlV1K5af2WFocdqqPbzeAxN-9oe70sFaRDNgPehWFOrvl5rWnaUYKJ4LgLraL63bNQ1rYltoLvLu7FP_VLCiZvU5E9aV1slRu49-ui3oxK6WTq6brZS5xRngAYvV8A5zpUnillu0sCWnPZ0t2C9-QTWqYqkMiZNI98LYE0EU-WnIFQ4BctMby8Zh8INkwhubkQvDVtxHpe_9keKMIBCusoTYhyKZuhCAxrr2Vlv1ka9Bjcrsnwh6IyHF0F]--></g></svg>