<svg aria-roledescription="sequence" role="graphics-document document" viewBox="-50 -10 2124.5 1459" style="max-width: 2124.5px;" xmlns="http://www.w3.org/2000/svg" width="100%" id="export-svg"><style xmlns="http://www.w3.org/1999/xhtml">@import url("https://cdnjs.cloudflare.com/ajax/libs/font-awesome/6.2.0/css/all.min.css"); p {margin: 0;}</style><g><rect class="actor actor-bottom" ry="3" rx="3" name="DeliveryGuy" height="65" width="150" stroke="#666" fill="#eaeaea" y="1373" x="1874.5"/><text class="actor actor-box" alignment-baseline="central" dominant-baseline="central" style="text-anchor: middle; font-size: 16px; font-weight: 400;" y="1405.5" x="1949.5"><tspan dy="0" x="1949.5">DeliveryGuy</tspan></text></g><g><rect class="actor actor-bottom" ry="3" rx="3" name="SystemManagement" height="65" width="167" stroke="#666" fill="#eaeaea" y="1373" x="1657.5"/><text class="actor actor-box" alignment-baseline="central" dominant-baseline="central" style="text-anchor: middle; font-size: 16px; font-weight: 400;" y="1405.5" x="1741"><tspan dy="0" x="1741">SystemManagement</tspan></text></g><g><rect class="actor actor-bottom" ry="3" rx="3" name="WarehouseSystem" height="65" width="156" stroke="#666" fill="#eaeaea" y="1373" x="1341.5"/><text class="actor actor-box" alignment-baseline="central" dominant-baseline="central" style="text-anchor: middle; font-size: 16px; font-weight: 400;" y="1405.5" x="1419.5"><tspan dy="0" x="1419.5">WarehouseSystem</tspan></text></g><g><rect class="actor actor-bottom" ry="3" rx="3" name="Admin" height="65" width="150" stroke="#666" fill="#eaeaea" y="1373" x="1056"/><text class="actor actor-box" alignment-baseline="central" dominant-baseline="central" style="text-anchor: middle; font-size: 16px; font-weight: 400;" y="1405.5" x="1131"><tspan dy="0" x="1131">Admin</tspan></text></g><g><rect class="actor actor-bottom" ry="3" rx="3" name="DeliverySystem" height="65" width="150" stroke="#666" fill="#eaeaea" y="1373" x="856"/><text class="actor actor-box" alignment-baseline="central" dominant-baseline="central" style="text-anchor: middle; font-size: 16px; font-weight: 400;" y="1405.5" x="931"><tspan dy="0" x="931">DeliverySystem</tspan></text></g><g><rect class="actor actor-bottom" ry="3" rx="3" name="TrackingSystem" height="65" width="150" stroke="#666" fill="#eaeaea" y="1373" x="534.5"/><text class="actor actor-box" alignment-baseline="central" dominant-baseline="central" style="text-anchor: middle; font-size: 16px; font-weight: 400;" y="1405.5" x="609.5"><tspan dy="0" x="609.5">TrackingSystem</tspan></text></g><g><rect class="actor actor-bottom" ry="3" rx="3" name="NotificationSystem" height="65" width="153" stroke="#666" fill="#eaeaea" y="1373" x="303"/><text class="actor actor-box" alignment-baseline="central" dominant-baseline="central" style="text-anchor: middle; font-size: 16px; font-weight: 400;" y="1405.5" x="379.5"><tspan dy="0" x="379.5">NotificationSystem</tspan></text></g><g><rect class="actor actor-bottom" ry="3" rx="3" name="Customer" height="65" width="150" stroke="#666" fill="#eaeaea" y="1373" x="0"/><text class="actor actor-box" alignment-baseline="central" dominant-baseline="central" style="text-anchor: middle; font-size: 16px; font-weight: 400;" y="1405.5" x="75"><tspan dy="0" x="75">Customer</tspan></text></g><g><line data-id="DeliveryGuy" data-et="life-line" name="DeliveryGuy" stroke="#999" stroke-width="0.5px" class="actor-line 200" y2="1373" x2="1949.5" y1="65" x1="1949.5" id="actor23"/><g data-id="DeliveryGuy" data-et="participant" id="root-23"><rect class="actor actor-top" ry="3" rx="3" name="DeliveryGuy" height="65" width="150" stroke="#666" fill="#eaeaea" y="0" x="1874.5"/><text class="actor actor-box" alignment-baseline="central" dominant-baseline="central" style="text-anchor: middle; font-size: 16px; font-weight: 400;" y="32.5" x="1949.5"><tspan dy="0" x="1949.5">DeliveryGuy</tspan></text></g></g><g><line data-id="SystemManagement" data-et="life-line" name="SystemManagement" stroke="#999" stroke-width="0.5px" class="actor-line 200" y2="1373" x2="1741" y1="65" x1="1741" id="actor22"/><g data-id="SystemManagement" data-et="participant" id="root-22"><rect class="actor actor-top" ry="3" rx="3" name="SystemManagement" height="65" width="167" stroke="#666" fill="#eaeaea" y="0" x="1657.5"/><text class="actor actor-box" alignment-baseline="central" dominant-baseline="central" style="text-anchor: middle; font-size: 16px; font-weight: 400;" y="32.5" x="1741"><tspan dy="0" x="1741">SystemManagement</tspan></text></g></g><g><line data-id="WarehouseSystem" data-et="life-line" name="WarehouseSystem" stroke="#999" stroke-width="0.5px" class="actor-line 200" y2="1373" x2="1419.5" y1="65" x1="1419.5" id="actor21"/><g data-id="WarehouseSystem" data-et="participant" id="root-21"><rect class="actor actor-top" ry="3" rx="3" name="WarehouseSystem" height="65" width="156" stroke="#666" fill="#eaeaea" y="0" x="1341.5"/><text class="actor actor-box" alignment-baseline="central" dominant-baseline="central" style="text-anchor: middle; font-size: 16px; font-weight: 400;" y="32.5" x="1419.5"><tspan dy="0" x="1419.5">WarehouseSystem</tspan></text></g></g><g><line data-id="Admin" data-et="life-line" name="Admin" stroke="#999" stroke-width="0.5px" class="actor-line 200" y2="1373" x2="1131" y1="65" x1="1131" id="actor20"/><g data-id="Admin" data-et="participant" id="root-20"><rect class="actor actor-top" ry="3" rx="3" name="Admin" height="65" width="150" stroke="#666" fill="#eaeaea" y="0" x="1056"/><text class="actor actor-box" alignment-baseline="central" dominant-baseline="central" style="text-anchor: middle; font-size: 16px; font-weight: 400;" y="32.5" x="1131"><tspan dy="0" x="1131">Admin</tspan></text></g></g><g><line data-id="DeliverySystem" data-et="life-line" name="DeliverySystem" stroke="#999" stroke-width="0.5px" class="actor-line 200" y2="1373" x2="931" y1="65" x1="931" id="actor19"/><g data-id="DeliverySystem" data-et="participant" id="root-19"><rect class="actor actor-top" ry="3" rx="3" name="DeliverySystem" height="65" width="150" stroke="#666" fill="#eaeaea" y="0" x="856"/><text class="actor actor-box" alignment-baseline="central" dominant-baseline="central" style="text-anchor: middle; font-size: 16px; font-weight: 400;" y="32.5" x="931"><tspan dy="0" x="931">DeliverySystem</tspan></text></g></g><g><line data-id="TrackingSystem" data-et="life-line" name="TrackingSystem" stroke="#999" stroke-width="0.5px" class="actor-line 200" y2="1373" x2="609.5" y1="65" x1="609.5" id="actor18"/><g data-id="TrackingSystem" data-et="participant" id="root-18"><rect class="actor actor-top" ry="3" rx="3" name="TrackingSystem" height="65" width="150" stroke="#666" fill="#eaeaea" y="0" x="534.5"/><text class="actor actor-box" alignment-baseline="central" dominant-baseline="central" style="text-anchor: middle; font-size: 16px; font-weight: 400;" y="32.5" x="609.5"><tspan dy="0" x="609.5">TrackingSystem</tspan></text></g></g><g><line data-id="NotificationSystem" data-et="life-line" name="NotificationSystem" stroke="#999" stroke-width="0.5px" class="actor-line 200" y2="1373" x2="379.5" y1="65" x1="379.5" id="actor17"/><g data-id="NotificationSystem" data-et="participant" id="root-17"><rect class="actor actor-top" ry="3" rx="3" name="NotificationSystem" height="65" width="153" stroke="#666" fill="#eaeaea" y="0" x="303"/><text class="actor actor-box" alignment-baseline="central" dominant-baseline="central" style="text-anchor: middle; font-size: 16px; font-weight: 400;" y="32.5" x="379.5"><tspan dy="0" x="379.5">NotificationSystem</tspan></text></g></g><g><line data-id="Customer" data-et="life-line" name="Customer" stroke="#999" stroke-width="0.5px" class="actor-line 200" y2="1373" x2="75" y1="65" x1="75" id="actor16"/><g data-id="Customer" data-et="participant" id="root-16"><rect class="actor actor-top" ry="3" rx="3" name="Customer" height="65" width="150" stroke="#666" fill="#eaeaea" y="0" x="0"/><text class="actor actor-box" alignment-baseline="central" dominant-baseline="central" style="text-anchor: middle; font-size: 16px; font-weight: 400;" y="32.5" x="75"><tspan dy="0" x="75">Customer</tspan></text></g></g><style>#export-svg{font-family:"trebuchet ms",verdana,arial,sans-serif;font-size:14px;fill:#333;}#export-svg .error-icon{fill:#ffffff;}#export-svg .error-text{fill:#000000;stroke:#000000;}#export-svg .edge-thickness-normal{stroke-width:1px;}#export-svg .edge-thickness-thick{stroke-width:3.5px;}#export-svg .edge-pattern-solid{stroke-dasharray:0;}#export-svg .edge-thickness-invisible{stroke-width:0;fill:none;}#export-svg .edge-pattern-dashed{stroke-dasharray:3;}#export-svg .edge-pattern-dotted{stroke-dasharray:2;}#export-svg .marker{fill:#000000;stroke:#000000;}#export-svg .marker.cross{stroke:#000000;}#export-svg svg{font-family:"trebuchet ms",verdana,arial,sans-serif;font-size:14px;}#export-svg p{margin:0;}#export-svg .actor{stroke:hsl(0, 0%, 70%);fill:#ffffff;}#export-svg text.actor&gt;tspan{fill:#333;stroke:none;}#export-svg .actor-line{stroke:hsl(0, 0%, 70%);}#export-svg .messageLine0{stroke-width:1.5;stroke-dasharray:none;stroke:#333;}#export-svg .messageLine1{stroke-width:1.5;stroke-dasharray:2,2;stroke:#333;}#export-svg #arrowhead path{fill:#333;stroke:#333;}#export-svg .sequenceNumber{fill:#ffffff;}#export-svg #sequencenumber{fill:#333;}#export-svg #crosshead path{fill:#333;stroke:#333;}#export-svg .messageText{fill:#333;stroke:none;}#export-svg .labelBox{stroke:hsl(0, 0%, 70%);fill:#ffffff;}#export-svg .labelText,#export-svg .labelText&gt;tspan{fill:#333;stroke:none;}#export-svg .loopText,#export-svg .loopText&gt;tspan{fill:#333;stroke:none;}#export-svg .loopLine{stroke-width:2px;stroke-dasharray:2,2;stroke:hsl(0, 0%, 70%);fill:hsl(0, 0%, 70%);}#export-svg .note{stroke:hsl(52.6829268293, 60%, 73.9215686275%);fill:#fff5ad;}#export-svg .noteText,#export-svg .noteText&gt;tspan{fill:#333;stroke:none;}#export-svg .activation0{fill:hsl(-120, 0%, 80%);stroke:hsl(-120, 0%, 70%);}#export-svg .activation1{fill:hsl(-120, 0%, 80%);stroke:hsl(-120, 0%, 70%);}#export-svg .activation2{fill:hsl(-120, 0%, 80%);stroke:hsl(-120, 0%, 70%);}#export-svg .actorPopupMenu{position:absolute;}#export-svg .actorPopupMenuPanel{position:absolute;fill:#ffffff;box-shadow:0px 8px 16px 0px rgba(0,0,0,0.2);filter:drop-shadow(3px 5px 2px rgb(0 0 0 / 0.4));}#export-svg .actor-man line{stroke:hsl(0, 0%, 70%);fill:#ffffff;}#export-svg .actor-man circle,#export-svg line{stroke:hsl(0, 0%, 70%);fill:#ffffff;stroke-width:2px;}#export-svg .node .neo-node{stroke:#000000;}#export-svg [data-look="neo"].node rect,#export-svg [data-look="neo"].cluster rect,#export-svg [data-look="neo"].node polygon{stroke:url(#export-svg-gradient);filter:drop-shadow( 0px 1px 2px rgba(0, 0, 0, 0.25));}#export-svg [data-look="neo"].node rect,#export-svg [data-look="neo"].node polygon,#export-svg [data-look="neo"].node path{stroke:url(#export-svg-gradient);filter:drop-shadow( 0px 1px 2px rgba(0, 0, 0, 0.25));}#export-svg [data-look="neo"].node .neo-line path{stroke:hsl(0, 0%, 70%);filter:none;}#export-svg [data-look="neo"].node circle{stroke:url(#export-svg-gradient);filter:drop-shadow( 0px 1px 2px rgba(0, 0, 0, 0.25));}#export-svg [data-look="neo"].node circle .state-start{fill:#000000;}#export-svg [data-look="neo"].statediagram-cluster rect{fill:#ffffff;stroke:url(#export-svg-gradient);stroke-width:1px;}#export-svg [data-look="neo"].icon-shape .icon{fill:url(#export-svg-gradient);filter:drop-shadow( 0px 1px 2px rgba(0, 0, 0, 0.25));}#export-svg [data-look="neo"].icon-shape .icon-neo path{stroke:url(#export-svg-gradient);filter:drop-shadow( 0px 1px 2px rgba(0, 0, 0, 0.25));}#export-svg :root{--mermaid-font-family:"trebuchet ms",verdana,arial,sans-serif;}</style><g/><defs><symbol height="24" width="24" id="computer"><path d="M2 2v13h20v-13h-20zm18 11h-16v-9h16v9zm-10.228 6l.466-1h3.524l.467 1h-4.457zm14.228 3h-24l2-6h2.104l-1.33 4h18.45l-1.297-4h2.073l2 6zm-5-10h-14v-7h14v7z" transform="scale(.5)"/></symbol></defs><defs><symbol clip-rule="evenodd" fill-rule="evenodd" id="database"><path d="M12.258.001l.256.004.255.005.253.008.251.01.249.012.247.015.246.016.242.019.241.02.239.023.236.024.233.027.231.028.229.031.225.032.223.034.22.036.217.038.214.04.211.041.208.043.205.045.201.046.198.048.194.05.191.051.187.053.183.054.18.056.175.057.172.059.168.06.163.061.16.063.155.064.15.066.074.033.073.033.071.034.07.034.069.035.068.035.067.035.066.035.064.036.064.036.062.036.06.036.06.037.058.037.058.037.055.038.055.038.053.038.052.038.051.039.05.039.048.039.047.039.045.04.044.04.043.04.041.04.04.041.039.041.037.041.036.041.034.041.033.042.032.042.03.042.029.042.027.042.026.043.024.043.023.043.021.043.02.043.018.044.017.043.015.044.013.044.012.044.011.045.009.044.007.045.006.045.004.045.002.045.001.045v17l-.001.045-.002.045-.004.045-.006.045-.007.045-.009.044-.011.045-.012.044-.013.044-.015.044-.017.043-.018.044-.02.043-.021.043-.023.043-.024.043-.026.043-.027.042-.029.042-.03.042-.032.042-.033.042-.034.041-.036.041-.037.041-.039.041-.04.041-.041.04-.043.04-.044.04-.045.04-.047.039-.048.039-.05.039-.051.039-.052.038-.053.038-.055.038-.055.038-.058.037-.058.037-.06.037-.06.036-.062.036-.064.036-.064.036-.066.035-.067.035-.068.035-.069.035-.07.034-.071.034-.073.033-.074.033-.15.066-.155.064-.16.063-.163.061-.168.06-.172.059-.175.057-.18.056-.183.054-.187.053-.191.051-.194.05-.198.048-.201.046-.205.045-.208.043-.211.041-.214.04-.217.038-.22.036-.223.034-.225.032-.229.031-.231.028-.233.027-.236.024-.239.023-.241.02-.242.019-.246.016-.247.015-.249.012-.251.01-.253.008-.255.005-.256.004-.258.001-.258-.001-.256-.004-.255-.005-.253-.008-.251-.01-.249-.012-.247-.015-.245-.016-.243-.019-.241-.02-.238-.023-.236-.024-.234-.027-.231-.028-.228-.031-.226-.032-.223-.034-.22-.036-.217-.038-.214-.04-.211-.041-.208-.043-.204-.045-.201-.046-.198-.048-.195-.05-.19-.051-.187-.053-.184-.054-.179-.056-.176-.057-.172-.059-.167-.06-.164-.061-.159-.063-.155-.064-.151-.066-.074-.033-.072-.033-.072-.034-.07-.034-.069-.035-.068-.035-.067-.035-.066-.035-.064-.036-.063-.036-.062-.036-.061-.036-.06-.037-.058-.037-.057-.037-.056-.038-.055-.038-.053-.038-.052-.038-.051-.039-.049-.039-.049-.039-.046-.039-.046-.04-.044-.04-.043-.04-.041-.04-.04-.041-.039-.041-.037-.041-.036-.041-.034-.041-.033-.042-.032-.042-.03-.042-.029-.042-.027-.042-.026-.043-.024-.043-.023-.043-.021-.043-.02-.043-.018-.044-.017-.043-.015-.044-.013-.044-.012-.044-.011-.045-.009-.044-.007-.045-.006-.045-.004-.045-.002-.045-.001-.045v-17l.001-.045.002-.045.004-.045.006-.045.007-.045.009-.044.011-.045.012-.044.013-.044.015-.044.017-.043.018-.044.02-.043.021-.043.023-.043.024-.043.026-.043.027-.042.029-.042.03-.042.032-.042.033-.042.034-.041.036-.041.037-.041.039-.041.04-.041.041-.04.043-.04.044-.04.046-.04.046-.039.049-.039.049-.039.051-.039.052-.038.053-.038.055-.038.056-.038.057-.037.058-.037.06-.037.061-.036.062-.036.063-.036.064-.036.066-.035.067-.035.068-.035.069-.035.07-.034.072-.034.072-.033.074-.033.151-.066.155-.064.159-.063.164-.061.167-.06.172-.059.176-.057.179-.056.184-.054.187-.053.19-.051.195-.05.198-.048.201-.046.204-.045.208-.043.211-.041.214-.04.217-.038.22-.036.223-.034.226-.032.228-.031.231-.028.234-.027.236-.024.238-.023.241-.02.243-.019.245-.016.247-.015.249-.012.251-.01.253-.008.255-.005.256-.004.258-.001.258.001zm-9.258 20.499v.01l.001.021.003.021.004.022.005.021.006.022.007.022.009.023.01.022.011.023.012.023.013.023.015.023.016.024.017.023.018.024.019.024.021.024.022.025.023.024.024.025.052.049.056.05.061.051.066.051.07.051.075.051.079.052.084.052.088.052.092.052.097.052.102.051.105.052.11.052.114.051.119.051.123.051.127.05.131.05.135.05.139.048.144.049.147.047.152.047.155.047.16.045.163.045.167.043.171.043.176.041.178.041.183.039.187.039.19.037.194.035.197.035.202.033.204.031.209.03.212.029.216.027.219.025.222.024.226.021.23.02.233.018.236.016.24.015.243.012.246.01.249.008.253.005.256.004.259.001.26-.001.257-.004.254-.005.25-.008.247-.011.244-.012.241-.014.237-.016.233-.018.231-.021.226-.021.224-.024.22-.026.216-.027.212-.028.21-.031.205-.031.202-.034.198-.034.194-.036.191-.037.187-.039.183-.04.179-.04.175-.042.172-.043.168-.044.163-.045.16-.046.155-.046.152-.047.148-.048.143-.049.139-.049.136-.05.131-.05.126-.05.123-.051.118-.052.114-.051.11-.052.106-.052.101-.052.096-.052.092-.052.088-.053.083-.051.079-.052.074-.052.07-.051.065-.051.06-.051.056-.05.051-.05.023-.024.023-.025.021-.024.02-.024.019-.024.018-.024.017-.024.015-.023.014-.024.013-.023.012-.023.01-.023.01-.022.008-.022.006-.022.006-.022.004-.022.004-.021.001-.021.001-.021v-4.127l-.077.055-.08.053-.083.054-.085.053-.087.052-.09.052-.093.051-.095.05-.097.05-.1.049-.102.049-.105.048-.106.047-.109.047-.111.046-.114.045-.115.045-.118.044-.12.043-.122.042-.124.042-.126.041-.128.04-.13.04-.132.038-.134.038-.135.037-.138.037-.139.035-.142.035-.143.034-.144.033-.147.032-.148.031-.15.03-.151.03-.153.029-.154.027-.156.027-.158.026-.159.025-.161.024-.162.023-.163.022-.165.021-.166.02-.167.019-.169.018-.169.017-.171.016-.173.015-.173.014-.175.013-.175.012-.177.011-.178.01-.179.008-.179.008-.181.006-.182.005-.182.004-.184.003-.184.002h-.37l-.184-.002-.184-.003-.182-.004-.182-.005-.181-.006-.179-.008-.179-.008-.178-.01-.176-.011-.176-.012-.175-.013-.173-.014-.172-.015-.171-.016-.17-.017-.169-.018-.167-.019-.166-.02-.165-.021-.163-.022-.162-.023-.161-.024-.159-.025-.157-.026-.156-.027-.155-.027-.153-.029-.151-.03-.15-.03-.148-.031-.146-.032-.145-.033-.143-.034-.141-.035-.14-.035-.137-.037-.136-.037-.134-.038-.132-.038-.13-.04-.128-.04-.126-.041-.124-.042-.122-.042-.12-.044-.117-.043-.116-.045-.113-.045-.112-.046-.109-.047-.106-.047-.105-.048-.102-.049-.1-.049-.097-.05-.095-.05-.093-.052-.09-.051-.087-.052-.085-.053-.083-.054-.08-.054-.077-.054v4.127zm0-5.654v.011l.001.021.003.021.004.021.005.022.006.022.007.022.009.022.01.022.011.023.012.023.013.023.015.024.016.023.017.024.018.024.019.024.021.024.022.024.023.025.024.024.052.05.056.05.061.05.066.051.07.051.075.052.079.051.084.052.088.052.092.052.097.052.102.052.105.052.11.051.114.051.119.052.123.05.127.051.131.05.135.049.139.049.144.048.147.048.152.047.155.046.16.045.163.045.167.044.171.042.176.042.178.04.183.04.187.038.19.037.194.036.197.034.202.033.204.032.209.03.212.028.216.027.219.025.222.024.226.022.23.02.233.018.236.016.24.014.243.012.246.01.249.008.253.006.256.003.259.001.26-.001.257-.003.254-.006.25-.008.247-.01.244-.012.241-.015.237-.016.233-.018.231-.02.226-.022.224-.024.22-.025.216-.027.212-.029.21-.03.205-.032.202-.033.198-.035.194-.036.191-.037.187-.039.183-.039.179-.041.175-.042.172-.043.168-.044.163-.045.16-.045.155-.047.152-.047.148-.048.143-.048.139-.05.136-.049.131-.05.126-.051.123-.051.118-.051.114-.052.11-.052.106-.052.101-.052.096-.052.092-.052.088-.052.083-.052.079-.052.074-.051.07-.052.065-.051.06-.05.056-.051.051-.049.023-.025.023-.024.021-.025.02-.024.019-.024.018-.024.017-.024.015-.023.014-.023.013-.024.012-.022.01-.023.01-.023.008-.022.006-.022.006-.022.004-.021.004-.022.001-.021.001-.021v-4.139l-.077.054-.08.054-.083.054-.085.052-.087.053-.09.051-.093.051-.095.051-.097.05-.1.049-.102.049-.105.048-.106.047-.109.047-.111.046-.114.045-.115.044-.118.044-.12.044-.122.042-.124.042-.126.041-.128.04-.13.039-.132.039-.134.038-.135.037-.138.036-.139.036-.142.035-.143.033-.144.033-.147.033-.148.031-.15.03-.151.03-.153.028-.154.028-.156.027-.158.026-.159.025-.161.024-.162.023-.163.022-.165.021-.166.02-.167.019-.169.018-.169.017-.171.016-.173.015-.173.014-.175.013-.175.012-.177.011-.178.009-.179.009-.179.007-.181.007-.182.005-.182.004-.184.003-.184.002h-.37l-.184-.002-.184-.003-.182-.004-.182-.005-.181-.007-.179-.007-.179-.009-.178-.009-.176-.011-.176-.012-.175-.013-.173-.014-.172-.015-.171-.016-.17-.017-.169-.018-.167-.019-.166-.02-.165-.021-.163-.022-.162-.023-.161-.024-.159-.025-.157-.026-.156-.027-.155-.028-.153-.028-.151-.03-.15-.03-.148-.031-.146-.033-.145-.033-.143-.033-.141-.035-.14-.036-.137-.036-.136-.037-.134-.038-.132-.039-.13-.039-.128-.04-.126-.041-.124-.042-.122-.043-.12-.043-.117-.044-.116-.044-.113-.046-.112-.046-.109-.046-.106-.047-.105-.048-.102-.049-.1-.049-.097-.05-.095-.051-.093-.051-.09-.051-.087-.053-.085-.052-.083-.054-.08-.054-.077-.054v4.139zm0-5.666v.011l.001.02.003.022.004.021.005.022.006.021.007.022.009.023.01.022.011.023.012.023.013.023.015.023.016.024.017.024.018.023.019.024.021.025.022.024.023.024.024.025.052.05.056.05.061.05.066.051.07.051.075.052.079.051.084.052.088.052.092.052.097.052.102.052.105.051.11.052.114.051.119.051.123.051.127.05.131.05.135.05.139.049.144.048.147.048.152.047.155.046.16.045.163.045.167.043.171.043.176.042.178.04.183.04.187.038.19.037.194.036.197.034.202.033.204.032.209.03.212.028.216.027.219.025.222.024.226.021.23.02.233.018.236.017.24.014.243.012.246.01.249.008.253.006.256.003.259.001.26-.001.257-.003.254-.006.25-.008.247-.01.244-.013.241-.014.237-.016.233-.018.231-.02.226-.022.224-.024.22-.025.216-.027.212-.029.21-.03.205-.032.202-.033.198-.035.194-.036.191-.037.187-.039.183-.039.179-.041.175-.042.172-.043.168-.044.163-.045.16-.045.155-.047.152-.047.148-.048.143-.049.139-.049.136-.049.131-.051.126-.05.123-.051.118-.052.114-.051.11-.052.106-.052.101-.052.096-.052.092-.052.088-.052.083-.052.079-.052.074-.052.07-.051.065-.051.06-.051.056-.05.051-.049.023-.025.023-.025.021-.024.02-.024.019-.024.018-.024.017-.024.015-.023.014-.024.013-.023.012-.023.01-.022.01-.023.008-.022.006-.022.006-.022.004-.022.004-.021.001-.021.001-.021v-4.153l-.077.054-.08.054-.083.053-.085.053-.087.053-.09.051-.093.051-.095.051-.097.05-.1.049-.102.048-.105.048-.106.048-.109.046-.111.046-.114.046-.115.044-.118.044-.12.043-.122.043-.124.042-.126.041-.128.04-.13.039-.132.039-.134.038-.135.037-.138.036-.139.036-.142.034-.143.034-.144.033-.147.032-.148.032-.15.03-.151.03-.153.028-.154.028-.156.027-.158.026-.159.024-.161.024-.162.023-.163.023-.165.021-.166.02-.167.019-.169.018-.169.017-.171.016-.173.015-.173.014-.175.013-.175.012-.177.01-.178.01-.179.009-.179.007-.181.006-.182.006-.182.004-.184.003-.184.001-.185.001-.185-.001-.184-.001-.184-.003-.182-.004-.182-.006-.181-.006-.179-.007-.179-.009-.178-.01-.176-.01-.176-.012-.175-.013-.173-.014-.172-.015-.171-.016-.17-.017-.169-.018-.167-.019-.166-.02-.165-.021-.163-.023-.162-.023-.161-.024-.159-.024-.157-.026-.156-.027-.155-.028-.153-.028-.151-.03-.15-.03-.148-.032-.146-.032-.145-.033-.143-.034-.141-.034-.14-.036-.137-.036-.136-.037-.134-.038-.132-.039-.13-.039-.128-.041-.126-.041-.124-.041-.122-.043-.12-.043-.117-.044-.116-.044-.113-.046-.112-.046-.109-.046-.106-.048-.105-.048-.102-.048-.1-.05-.097-.049-.095-.051-.093-.051-.09-.052-.087-.052-.085-.053-.083-.053-.08-.054-.077-.054v4.153zm8.74-8.179l-.257.004-.254.005-.25.008-.247.011-.244.012-.241.014-.237.016-.233.018-.231.021-.226.022-.224.023-.22.026-.216.027-.212.028-.21.031-.205.032-.202.033-.198.034-.194.036-.191.038-.187.038-.183.04-.179.041-.175.042-.172.043-.168.043-.163.045-.16.046-.155.046-.152.048-.148.048-.143.048-.139.049-.136.05-.131.05-.126.051-.123.051-.118.051-.114.052-.11.052-.106.052-.101.052-.096.052-.092.052-.088.052-.083.052-.079.052-.074.051-.07.052-.065.051-.06.05-.056.05-.051.05-.023.025-.023.024-.021.024-.02.025-.019.024-.018.024-.017.023-.015.024-.014.023-.013.023-.012.023-.01.023-.01.022-.008.022-.006.023-.006.021-.004.022-.004.021-.001.021-.001.021.001.021.001.021.004.021.004.022.006.021.006.023.008.022.01.022.01.023.012.023.013.023.014.023.015.024.017.023.018.024.019.024.02.025.021.024.023.024.023.025.051.05.056.05.06.05.065.051.07.052.074.051.079.052.083.052.088.052.092.052.096.052.101.052.106.052.11.052.114.052.118.051.123.051.126.051.131.05.136.05.139.049.143.048.148.048.152.048.155.046.16.046.163.045.168.043.172.043.175.042.179.041.183.04.187.038.191.038.194.036.198.034.202.033.205.032.21.031.212.028.216.027.22.026.224.023.226.022.231.021.233.018.237.016.241.014.244.012.247.011.25.008.254.005.257.004.26.001.26-.001.257-.004.254-.005.25-.008.247-.011.244-.012.241-.014.237-.016.233-.018.231-.021.226-.022.224-.023.22-.026.216-.027.212-.028.21-.031.205-.032.202-.033.198-.034.194-.036.191-.038.187-.038.183-.04.179-.041.175-.042.172-.043.168-.043.163-.045.16-.046.155-.046.152-.048.148-.048.143-.048.139-.049.136-.05.131-.05.126-.051.123-.051.118-.051.114-.052.11-.052.106-.052.101-.052.096-.052.092-.052.088-.052.083-.052.079-.052.074-.051.07-.052.065-.051.06-.05.056-.05.051-.05.023-.025.023-.024.021-.024.02-.025.019-.024.018-.024.017-.023.015-.024.014-.023.013-.023.012-.023.01-.023.01-.022.008-.022.006-.023.006-.021.004-.022.004-.021.001-.021.001-.021-.001-.021-.001-.021-.004-.021-.004-.022-.006-.021-.006-.023-.008-.022-.01-.022-.01-.023-.012-.023-.013-.023-.014-.023-.015-.024-.017-.023-.018-.024-.019-.024-.02-.025-.021-.024-.023-.024-.023-.025-.051-.05-.056-.05-.06-.05-.065-.051-.07-.052-.074-.051-.079-.052-.083-.052-.088-.052-.092-.052-.096-.052-.101-.052-.106-.052-.11-.052-.114-.052-.118-.051-.123-.051-.126-.051-.131-.05-.136-.05-.139-.049-.143-.048-.148-.048-.152-.048-.155-.046-.16-.046-.163-.045-.168-.043-.172-.043-.175-.042-.179-.041-.183-.04-.187-.038-.191-.038-.194-.036-.198-.034-.202-.033-.205-.032-.21-.031-.212-.028-.216-.027-.22-.026-.224-.023-.226-.022-.231-.021-.233-.018-.237-.016-.241-.014-.244-.012-.247-.011-.25-.008-.254-.005-.257-.004-.26-.001-.26.001z" transform="scale(.5)"/></symbol></defs><defs><symbol height="24" width="24" id="clock"><path d="M12 2c5.514 0 10 4.486 10 10s-4.486 10-10 10-10-4.486-10-10 4.486-10 10-10zm0-2c-6.627 0-12 5.373-12 12s5.373 12 12 12 12-5.373 12-12-5.373-12-12-12zm5.848 12.459c.202.038.202.333.001.372-1.907.361-6.045 1.111-6.547 1.111-.719 0-1.301-.582-1.301-1.301 0-.512.77-5.447 1.125-7.445.034-.192.312-.181.343.014l.985 6.238 5.394 1.011z" transform="scale(.5)"/></symbol></defs><defs><marker orient="auto-start-reverse" markerHeight="12" markerWidth="12" markerUnits="userSpaceOnUse" refY="5" refX="7.9" id="arrowhead"><path d="M -1 0 L 10 5 L 0 10 z"/></marker></defs><defs><marker refY="4.5" refX="4" orient="auto" markerHeight="8" markerWidth="15" id="crosshead"><path style="stroke-dasharray: 0, 0;" d="M 1,2 L 6,7 M 6,2 L 1,7" stroke-width="1pt" stroke="#000000" fill="none"/></marker></defs><defs><marker orient="auto" markerHeight="28" markerWidth="20" refY="7" refX="15.5" id="filled-head"><path d="M 18,7 L9,13 L14,7 L9,1 Z"/></marker></defs><defs><marker orient="auto" markerHeight="40" markerWidth="60" refY="15" refX="15" id="sequencenumber"><circle r="6" cy="15" cx="15"/></marker></defs><g data-id="if11ad9077e" data-et="note"><rect class="note" height="37" width="354.5" stroke="#666" fill="#EDF2AE" y="75" x="50"/><text dy="1em" class="noteText" style="font-size: 16px; font-weight: 400;" alignment-baseline="middle" dominant-baseline="middle" text-anchor="middle" y="80" x="227"><tspan x="227">Customer Core Scenario: Tracking a shipment and receiving updates</tspan></text></g><g><rect class="activation0" height="220" width="10" stroke="#666" fill="#EDF2AE" y="156" x="604.5"/></g><g><rect class="activation0" height="42" width="10" stroke="#666" fill="#EDF2AE" y="202" x="926"/></g><g><rect class="activation0" height="42" width="10" stroke="#666" fill="#EDF2AE" y="290" x="374.5"/></g><g data-id="if0778692fb" data-et="note"><rect class="note" height="37" width="338.5" stroke="#666" fill="#EDF2AE" y="386" x="1106"/><text dy="1em" class="noteText" style="font-size: 16px; font-weight: 400;" alignment-baseline="middle" dominant-baseline="middle" text-anchor="middle" y="391" x="1275"><tspan x="1275">Admin Core Scenario: Managing shipments and system updates</tspan></text></g><g><rect class="activation0" height="220" width="10" stroke="#666" fill="#EDF2AE" y="467" x="1736"/></g><g><rect class="activation0" height="42" width="10" stroke="#666" fill="#EDF2AE" y="513" x="1414.5"/></g><g data-id="i72044685bb" data-et="note"><rect class="note" height="37" width="1924.5" stroke="#666" fill="#EDF2AE" y="697" x="50"/><text dy="1em" class="noteText" style="font-size: 16px; font-weight: 400;" alignment-baseline="middle" dominant-baseline="middle" text-anchor="middle" y="702" x="1012"><tspan x="1012">Delivery Guy Core Scenario: Managing deliveries and updates</tspan></text></g><g><rect class="activation0" height="176" width="10" stroke="#666" fill="#EDF2AE" y="778" x="926"/></g><g/><g/><g data-id="i4c29454e3b" data-et="note"><rect class="note" height="37" width="538.5" stroke="#666" fill="#EDF2AE" y="964" x="906"/><text dy="1em" class="noteText" style="font-size: 16px; font-weight: 400;" alignment-baseline="middle" dominant-baseline="middle" text-anchor="middle" y="969" x="1175"><tspan x="1175">Warehouse Core Scenario: Managing inventory and shipment preparation</tspan></text></g><g><rect class="activation0" height="218" width="10" stroke="#666" fill="#EDF2AE" y="1047" x="1736"/></g><g><rect class="activation0" height="130" width="10" stroke="#666" fill="#EDF2AE" y="1091" x="926"/></g><g><rect class="activation0" height="42" width="10" stroke="#666" fill="#EDF2AE" y="1135" x="1944.5"/></g><text dy="1em" class="messageText" style="font-size: 16px; font-weight: 400;" alignment-baseline="middle" dominant-baseline="middle" text-anchor="middle" y="127" x="339">Track Shipment</text><line style="fill: none;" marker-end="url(#arrowhead)" stroke="none" stroke-width="2" data-to="TrackingSystem" data-from="Customer" data-id="i61cb8a7e7f" data-et="message" class="messageLine0" y2="156" x2="601.5" y1="156" x1="76"/><text dy="1em" class="messageText" style="font-size: 16px; font-weight: 400;" alignment-baseline="middle" dominant-baseline="middle" text-anchor="middle" y="171" x="769">Get Current Status</text><line style="fill: none;" marker-end="url(#arrowhead)" stroke="none" stroke-width="2" data-to="DeliverySystem" data-from="TrackingSystem" data-id="i6d94a9a909" data-et="message" class="messageLine0" y2="200" x2="923" y1="200" x1="614.5"/><text dy="1em" class="messageText" style="font-size: 16px; font-weight: 400;" alignment-baseline="middle" dominant-baseline="middle" text-anchor="middle" y="215" x="772">Return Status</text><line marker-end="url(#arrowhead)" style="stroke-dasharray: 3, 3; fill: none;" stroke="none" stroke-width="2" data-to="TrackingSystem" data-from="DeliverySystem" data-id="i7a6ee4d948" data-et="message" class="messageLine1" y2="244" x2="617.5" y1="244" x1="926"/><text dy="1em" class="messageText" style="font-size: 16px; font-weight: 400;" alignment-baseline="middle" dominant-baseline="middle" text-anchor="middle" y="259" x="496">Subscribe to Updates</text><line style="fill: none;" marker-end="url(#arrowhead)" stroke="none" stroke-width="2" data-to="NotificationSystem" data-from="TrackingSystem" data-id="i4bf483d3b6" data-et="message" class="messageLine0" y2="288" x2="387.5" y1="288" x1="604.5"/><text dy="1em" class="messageText" style="font-size: 16px; font-weight: 400;" alignment-baseline="middle" dominant-baseline="middle" text-anchor="middle" y="303" x="227">Confirm Subscription</text><line marker-end="url(#arrowhead)" style="stroke-dasharray: 3, 3; fill: none;" stroke="none" stroke-width="2" data-to="Customer" data-from="NotificationSystem" data-id="i4b3b431fa0" data-et="message" class="messageLine1" y2="332" x2="79" y1="332" x1="374.5"/><text dy="1em" class="messageText" style="font-size: 16px; font-weight: 400;" alignment-baseline="middle" dominant-baseline="middle" text-anchor="middle" y="347" x="342">Display Tracking Info</text><line marker-end="url(#arrowhead)" style="stroke-dasharray: 3, 3; fill: none;" stroke="none" stroke-width="2" data-to="Customer" data-from="TrackingSystem" data-id="i52d4873970" data-et="message" class="messageLine1" y2="376" x2="79" y1="376" x1="604.5"/><text dy="1em" class="messageText" style="font-size: 16px; font-weight: 400;" alignment-baseline="middle" dominant-baseline="middle" text-anchor="middle" y="438" x="1433">Update Shipment Info</text><line style="fill: none;" marker-end="url(#arrowhead)" stroke="none" stroke-width="2" data-to="SystemManagement" data-from="Admin" data-id="i73b90a621c" data-et="message" class="messageLine0" y2="467" x2="1733" y1="467" x1="1132"/><text dy="1em" class="messageText" style="font-size: 16px; font-weight: 400;" alignment-baseline="middle" dominant-baseline="middle" text-anchor="middle" y="482" x="1582">Update Records</text><line style="fill: none;" marker-end="url(#arrowhead)" stroke="none" stroke-width="2" data-to="WarehouseSystem" data-from="SystemManagement" data-id="if8f2eea453" data-et="message" class="messageLine0" y2="511" x2="1427.5" y1="511" x1="1736"/><text dy="1em" class="messageText" style="font-size: 16px; font-weight: 400;" alignment-baseline="middle" dominant-baseline="middle" text-anchor="middle" y="526" x="1579">Confirm Update</text><line marker-end="url(#arrowhead)" style="stroke-dasharray: 3, 3; fill: none;" stroke="none" stroke-width="2" data-to="SystemManagement" data-from="WarehouseSystem" data-id="if2a6a37866" data-et="message" class="messageLine1" y2="555" x2="1733" y1="555" x1="1424.5"/><text dy="1em" class="messageText" style="font-size: 16px; font-weight: 400;" alignment-baseline="middle" dominant-baseline="middle" text-anchor="middle" y="570" x="1060">Trigger Update Notification</text><line style="fill: none;" marker-end="url(#arrowhead)" stroke="none" stroke-width="2" data-to="NotificationSystem" data-from="SystemManagement" data-id="i69e746a082" data-et="message" class="messageLine0" y2="599" x2="383.5" y1="599" x1="1736"/><text dy="1em" class="messageText" style="font-size: 16px; font-weight: 400;" alignment-baseline="middle" dominant-baseline="middle" text-anchor="middle" y="614" x="229">Send Status Update</text><line style="fill: none;" marker-end="url(#arrowhead)" stroke="none" stroke-width="2" data-to="Customer" data-from="NotificationSystem" data-id="i121961beca" data-et="message" class="messageLine0" y2="643" x2="79" y1="643" x1="378.5"/><text dy="1em" class="messageText" style="font-size: 16px; font-weight: 400;" alignment-baseline="middle" dominant-baseline="middle" text-anchor="middle" y="658" x="1436">Update Complete</text><line marker-end="url(#arrowhead)" style="stroke-dasharray: 3, 3; fill: none;" stroke="none" stroke-width="2" data-to="Admin" data-from="SystemManagement" data-id="ib3ff7dc363" data-et="message" class="messageLine1" y2="687" x2="1135" y1="687" x1="1736"/><text dy="1em" class="messageText" style="font-size: 16px; font-weight: 400;" alignment-baseline="middle" dominant-baseline="middle" text-anchor="middle" y="749" x="1444">Update Delivery Status</text><line style="fill: none;" marker-end="url(#arrowhead)" stroke="none" stroke-width="2" data-to="DeliverySystem" data-from="DeliveryGuy" data-id="i9569729a95" data-et="message" class="messageLine0" y2="778" x2="939" y1="778" x1="1948.5"/><text dy="1em" class="messageText" style="font-size: 16px; font-weight: 400;" alignment-baseline="middle" dominant-baseline="middle" text-anchor="middle" y="793" x="772">Update Tracking</text><line style="fill: none;" marker-end="url(#arrowhead)" stroke="none" stroke-width="2" data-to="TrackingSystem" data-from="DeliverySystem" data-id="ib709066871" data-et="message" class="messageLine0" y2="822" x2="617.5" y1="822" x1="926"/><text dy="1em" class="messageText" style="font-size: 16px; font-weight: 400;" alignment-baseline="middle" dominant-baseline="middle" text-anchor="middle" y="837" x="496">Trigger Status Change</text><line style="fill: none;" marker-end="url(#arrowhead)" stroke="none" stroke-width="2" data-to="NotificationSystem" data-from="TrackingSystem" data-id="i03b5bea4b5" data-et="message" class="messageLine0" y2="866" x2="387.5" y1="866" x1="604.5"/><text dy="1em" class="messageText" style="font-size: 16px; font-weight: 400;" alignment-baseline="middle" dominant-baseline="middle" text-anchor="middle" y="881" x="227">Send Delivery Update</text><line style="fill: none;" marker-end="url(#arrowhead)" stroke="none" stroke-width="2" data-to="Customer" data-from="NotificationSystem" data-id="i274c586160" data-et="message" class="messageLine0" y2="910" x2="79" y1="910" x1="374.5"/><text dy="1em" class="messageText" style="font-size: 16px; font-weight: 400;" alignment-baseline="middle" dominant-baseline="middle" text-anchor="middle" y="925" x="1441">Confirm Status Update</text><line marker-end="url(#arrowhead)" style="stroke-dasharray: 3, 3; fill: none;" stroke="none" stroke-width="2" data-to="DeliveryGuy" data-from="DeliverySystem" data-id="i8e6ce056b7" data-et="message" class="messageLine1" y2="954" x2="1945.5" y1="954" x1="936"/><text dy="1em" class="messageText" style="font-size: 16px; font-weight: 400;" alignment-baseline="middle" dominant-baseline="middle" text-anchor="middle" y="1016" x="1577">Update Inventory</text><line style="fill: none;" marker-end="url(#arrowhead)" stroke="none" stroke-width="2" data-to="SystemManagement" data-from="WarehouseSystem" data-id="i807a0ce6d8" data-et="message" class="messageLine0" y2="1045" x2="1733" y1="1045" x1="1420.5"/><text dy="1em" class="messageText" style="font-size: 16px; font-weight: 400;" alignment-baseline="middle" dominant-baseline="middle" text-anchor="middle" y="1060" x="1338">Schedule Pickup</text><line style="fill: none;" marker-end="url(#arrowhead)" stroke="none" stroke-width="2" data-to="DeliverySystem" data-from="SystemManagement" data-id="ib1a8e6e6b2" data-et="message" class="messageLine0" y2="1089" x2="939" y1="1089" x1="1736"/><text dy="1em" class="messageText" style="font-size: 16px; font-weight: 400;" alignment-baseline="middle" dominant-baseline="middle" text-anchor="middle" y="1104" x="1439">Assign Delivery</text><line style="fill: none;" marker-end="url(#arrowhead)" stroke="none" stroke-width="2" data-to="DeliveryGuy" data-from="DeliverySystem" data-id="i97d5f9ef03" data-et="message" class="messageLine0" y2="1133" x2="1941.5" y1="1133" x1="936"/><text dy="1em" class="messageText" style="font-size: 16px; font-weight: 400;" alignment-baseline="middle" dominant-baseline="middle" text-anchor="middle" y="1148" x="1442">Confirm Assignment</text><line marker-end="url(#arrowhead)" style="stroke-dasharray: 3, 3; fill: none;" stroke="none" stroke-width="2" data-to="DeliverySystem" data-from="DeliveryGuy" data-id="i4cebd842ba" data-et="message" class="messageLine1" y2="1177" x2="939" y1="1177" x1="1944.5"/><text dy="1em" class="messageText" style="font-size: 16px; font-weight: 400;" alignment-baseline="middle" dominant-baseline="middle" text-anchor="middle" y="1192" x="1335">Confirm Schedule</text><line marker-end="url(#arrowhead)" style="stroke-dasharray: 3, 3; fill: none;" stroke="none" stroke-width="2" data-to="SystemManagement" data-from="DeliverySystem" data-id="i32881818d7" data-et="message" class="messageLine1" y2="1221" x2="1733" y1="1221" x1="936"/><text dy="1em" class="messageText" style="font-size: 16px; font-weight: 400;" alignment-baseline="middle" dominant-baseline="middle" text-anchor="middle" y="1236" x="1580">Update Complete</text><line marker-end="url(#arrowhead)" style="stroke-dasharray: 3, 3; fill: none;" stroke="none" stroke-width="2" data-to="WarehouseSystem" data-from="SystemManagement" data-id="if5660bb638" data-et="message" class="messageLine1" y2="1265" x2="1423.5" y1="1265" x1="1736"/><text dy="1em" class="messageText" style="font-size: 16px; font-weight: 400;" alignment-baseline="middle" dominant-baseline="middle" text-anchor="middle" y="1280" x="659">Send Pickup Alert</text><line style="fill: none;" marker-end="url(#arrowhead)" stroke="none" stroke-width="2" data-to="NotificationSystem" data-from="DeliverySystem" data-id="i881c1d0e0e" data-et="message" class="messageLine0" y2="1309" x2="387.5" y1="1309" x1="930"/><text dy="1em" class="messageText" style="font-size: 16px; font-weight: 400;" alignment-baseline="middle" dominant-baseline="middle" text-anchor="middle" y="1324" x="227">Notify Estimated Delivery</text><line style="fill: none;" marker-end="url(#arrowhead)" stroke="none" stroke-width="2" data-to="Customer" data-from="NotificationSystem" data-id="ibfb012ddda" data-et="message" class="messageLine0" y2="1353" x2="79" y1="1353" x1="374.5"/></svg>