<svg xmlns="http://www.w3.org/2000/svg" xmlns:xlink="http://www.w3.org/1999/xlink" contentStyleType="text/css" height="722px" preserveAspectRatio="none" style="width:2172px;height:722px;" version="1.1" viewBox="0 0 2172 722" width="2172px" zoomAndPan="magnify"><defs/><g><!--cluster Frontend Layer--><g id="cluster_Frontend Layer"><path d="M8.5,6 L130.4961,6 A3.75,3.75 0 0 1 132.9961,8.5 L139.9961,28.2969 L2162.5,28.2969 A2.5,2.5 0 0 1 2165,30.7969 L2165,176.5 A2.5,2.5 0 0 1 2162.5,179 L8.5,179 A2.5,2.5 0 0 1 6,176.5 L6,8.5 A2.5,2.5 0 0 1 8.5,6 " fill="none" style="stroke:#000000;stroke-width:1.5;"/><line style="stroke:#000000;stroke-width:1.5;" x1="6" x2="139.9961" y1="28.2969" y2="28.2969"/><text fill="#000000" font-family="sans-serif" font-size="14" font-weight="bold" lengthAdjust="spacing" textLength="120.9961" x="10" y="20.9951">Frontend Layer</text></g><!--cluster Customer Interface--><g id="cluster_Customer Interface"><path d="M32.5,49 L185.8457,49 A3.75,3.75 0 0 1 188.3457,51.5 L195.3457,71.2969 L501.5,71.2969 A2.5,2.5 0 0 1 504,73.7969 L504,152.5 A2.5,2.5 0 0 1 501.5,155 L32.5,155 A2.5,2.5 0 0 1 30,152.5 L30,51.5 A2.5,2.5 0 0 1 32.5,49 " fill="#90EE90" style="stroke:#000000;stroke-width:1.5;"/><line style="stroke:#000000;stroke-width:1.5;" x1="30" x2="195.3457" y1="71.2969" y2="71.2969"/><text fill="#000000" font-family="sans-serif" font-size="14" font-weight="bold" lengthAdjust="spacing" textLength="152.3457" x="34" y="63.9951">Customer Interface</text></g><!--cluster Admin Interface--><g id="cluster_Admin Interface"><path d="M530.5,49 L658.1836,49 A3.75,3.75 0 0 1 660.6836,51.5 L667.6836,71.2969 L1055.5,71.2969 A2.5,2.5 0 0 1 1058,73.7969 L1058,152.5 A2.5,2.5 0 0 1 1055.5,155 L530.5,155 A2.5,2.5 0 0 1 528,152.5 L528,51.5 A2.5,2.5 0 0 1 530.5,49 " fill="#ADD8E6" style="stroke:#000000;stroke-width:1.5;"/><line style="stroke:#000000;stroke-width:1.5;" x1="528" x2="667.6836" y1="71.2969" y2="71.2969"/><text fill="#000000" font-family="sans-serif" font-size="14" font-weight="bold" lengthAdjust="spacing" textLength="126.6836" x="532" y="63.9951">Admin Interface</text></g><!--cluster Delivery Interface--><g id="cluster_Delivery Interface"><path d="M1670.5,49 L1813.3389,49 A3.75,3.75 0 0 1 1815.8389,51.5 L1822.8389,71.2969 L2138.5,71.2969 A2.5,2.5 0 0 1 2141,73.7969 L2141,152.5 A2.5,2.5 0 0 1 2138.5,155 L1670.5,155 A2.5,2.5 0 0 1 1668,152.5 L1668,51.5 A2.5,2.5 0 0 1 1670.5,49 " fill="#FFFF99" style="stroke:#000000;stroke-width:1.5;"/><line style="stroke:#000000;stroke-width:1.5;" x1="1668" x2="1822.8389" y1="71.2969" y2="71.2969"/><text fill="#000000" font-family="sans-serif" font-size="14" font-weight="bold" lengthAdjust="spacing" textLength="141.8389" x="1672" y="63.9951">Delivery Interface</text></g><!--cluster Warehouse Interface--><g id="cluster_Warehouse Interface"><path d="M1084.5,49 L1250.6426,49 A3.75,3.75 0 0 1 1253.1426,51.5 L1260.1426,71.2969 L1641.5,71.2969 A2.5,2.5 0 0 1 1644,73.7969 L1644,152.5 A2.5,2.5 0 0 1 1641.5,155 L1084.5,155 A2.5,2.5 0 0 1 1082,152.5 L1082,51.5 A2.5,2.5 0 0 1 1084.5,49 " fill="#FFB6C1" style="stroke:#000000;stroke-width:1.5;"/><line style="stroke:#000000;stroke-width:1.5;" x1="1082" x2="1260.1426" y1="71.2969" y2="71.2969"/><text fill="#000000" font-family="sans-serif" font-size="14" font-weight="bold" lengthAdjust="spacing" textLength="165.1426" x="1086" y="63.9951">Warehouse Interface</text></g><!--cluster Service Layer--><g id="cluster_Service Layer"><path d="M31.5,228 L139.4688,228 A3.75,3.75 0 0 1 141.9688,230.5 L148.9688,250.2969 L1097.5,250.2969 A2.5,2.5 0 0 1 1100,252.7969 L1100,713 A2.5,2.5 0 0 1 1097.5,715.5 L31.5,715.5 A2.5,2.5 0 0 1 29,713 L29,230.5 A2.5,2.5 0 0 1 31.5,228 " fill="none" style="stroke:#000000;stroke-width:1.5;"/><line style="stroke:#000000;stroke-width:1.5;" x1="29" x2="148.9688" y1="250.2969" y2="250.2969"/><text fill="#000000" font-family="sans-serif" font-size="14" font-weight="bold" lengthAdjust="spacing" textLength="106.9688" x="33" y="242.9951">Service Layer</text></g><!--cluster Authentication--><g id="cluster_Authentication"><path d="M55.5,271 L173.7363,271 A3.75,3.75 0 0 1 176.2363,273.5 L183.2363,293.2969 L388.5,293.2969 A2.5,2.5 0 0 1 391,295.7969 L391,529.5 A2.5,2.5 0 0 1 388.5,532 L55.5,532 A2.5,2.5 0 0 1 53,529.5 L53,273.5 A2.5,2.5 0 0 1 55.5,271 " fill="#87CEEB" style="stroke:#000000;stroke-width:1.5;"/><line style="stroke:#000000;stroke-width:1.5;" x1="53" x2="183.2363" y1="293.2969" y2="293.2969"/><text fill="#000000" font-family="sans-serif" font-size="14" font-weight="bold" lengthAdjust="spacing" textLength="117.2363" x="57" y="285.9951">Authentication</text></g><!--cluster Core Services--><g id="cluster_Core Services"><path d="M417.5,271 L526.2002,271 A3.75,3.75 0 0 1 528.7002,273.5 L535.7002,293.2969 L1073.5,293.2969 A2.5,2.5 0 0 1 1076,295.7969 L1076,374.5 A2.5,2.5 0 0 1 1073.5,377 L417.5,377 A2.5,2.5 0 0 1 415,374.5 L415,273.5 A2.5,2.5 0 0 1 417.5,271 " fill="#DA70D6" style="stroke:#000000;stroke-width:1.5;"/><line style="stroke:#000000;stroke-width:1.5;" x1="415" x2="535.7002" y1="293.2969" y2="293.2969"/><text fill="#000000" font-family="sans-serif" font-size="14" font-weight="bold" lengthAdjust="spacing" textLength="107.7002" x="419" y="285.9951">Core Services</text></g><!--cluster Notification Services--><g id="cluster_Notification Services"><path d="M417.5,426 L582.4463,426 A3.75,3.75 0 0 1 584.9463,428.5 L591.9463,448.2969 L882.5,448.2969 A2.5,2.5 0 0 1 885,450.7969 L885,689 A2.5,2.5 0 0 1 882.5,691.5 L417.5,691.5 A2.5,2.5 0 0 1 415,689 L415,428.5 A2.5,2.5 0 0 1 417.5,426 " fill="#FFA500" style="stroke:#000000;stroke-width:1.5;"/><line style="stroke:#000000;stroke-width:1.5;" x1="415" x2="591.9463" y1="448.2969" y2="448.2969"/><text fill="#000000" font-family="sans-serif" font-size="14" font-weight="bold" lengthAdjust="spacing" textLength="163.9463" x="419" y="440.9951">Notification Services</text></g><!--cluster Storage--><g id="cluster_Storage"><path d="M1126.5,581 L1231.8438,581 A3.75,3.75 0 0 1 1234.3438,583.5 L1241.3438,603.2969 L1715.5,603.2969 A2.5,2.5 0 0 1 1718,605.7969 L1718,693.5 A2.5,2.5 0 0 1 1715.5,696 L1126.5,696 A2.5,2.5 0 0 1 1124,693.5 L1124,583.5 A2.5,2.5 0 0 1 1126.5,581 " fill="#FFA726" style="stroke:#000000;stroke-width:1.5;"/><line style="stroke:#000000;stroke-width:1.5;" x1="1124" x2="1241.3438" y1="603.2969" y2="603.2969"/><text fill="#000000" font-family="sans-serif" font-size="14" font-weight="bold" lengthAdjust="spacing" textLength="104.3438" x="1128" y="595.9951">Data Storage</text></g><!--cluster External Services--><g id="cluster_External Services"><path d="M1173.5,271 L1311.8066,271 A3.75,3.75 0 0 1 1314.3066,273.5 L1321.3066,293.2969 L1768.5,293.2969 A2.5,2.5 0 0 1 1771,295.7969 L1771,374.5 A2.5,2.5 0 0 1 1768.5,377 L1173.5,377 A2.5,2.5 0 0 1 1171,374.5 L1171,273.5 A2.5,2.5 0 0 1 1173.5,271 " fill="#78909C" style="stroke:#000000;stroke-width:1.5;"/><line style="stroke:#000000;stroke-width:1.5;" x1="1171" x2="1321.3066" y1="293.2969" y2="293.2969"/><text fill="#000000" font-family="sans-serif" font-size="14" font-weight="bold" lengthAdjust="spacing" textLength="137.3066" x="1175" y="285.9951">External Services</text></g><!--entity UI--><g id="elem_UI"><rect fill="#F1F1F1" height="36.2969" rx="2.5" ry="2.5" style="stroke:#181818;stroke-width:0.5;" width="119.0391" x="46.5" y="103"/><text fill="#000000" font-family="sans-serif" font-size="14" lengthAdjust="spacing" textLength="99.0391" x="56.5" y="125.9951">User Interface</text></g><!--entity MobileApp--><g id="elem_MobileApp"><rect fill="#F1F1F1" height="36.2969" rx="2.5" ry="2.5" style="stroke:#181818;stroke-width:0.5;" width="97.7246" x="201" y="103"/><text fill="#000000" font-family="sans-serif" font-size="14" lengthAdjust="spacing" textLength="77.7246" x="211" y="125.9951">Mobile App</text></g><!--entity CustomerFeatures--><g id="elem_CustomerFeatures"><rect fill="#F1F1F1" height="36.2969" rx="2.5" ry="2.5" style="stroke:#181818;stroke-width:0.5;" width="153.7246" x="334" y="103"/><text fill="#000000" font-family="sans-serif" font-size="14" lengthAdjust="spacing" textLength="133.7246" x="344" y="125.9951">Customer Features</text></g><!--entity AdminDashboard--><g id="elem_AdminDashboard"><rect fill="#F1F1F1" height="36.2969" rx="2.5" ry="2.5" style="stroke:#181818;stroke-width:0.5;" width="145.5146" x="544" y="103"/><text fill="#000000" font-family="sans-serif" font-size="14" lengthAdjust="spacing" textLength="125.5146" x="554" y="125.9951">Admin Dashboard</text></g><!--entity SystemMonitoring--><g id="elem_SystemMonitoring"><rect fill="#F1F1F1" height="36.2969" rx="2.5" ry="2.5" style="stroke:#181818;stroke-width:0.5;" width="151.5234" x="725" y="103"/><text fill="#000000" font-family="sans-serif" font-size="14" lengthAdjust="spacing" textLength="131.5234" x="735" y="125.9951">System Monitoring</text></g><!--entity ReportingTools--><g id="elem_ReportingTools"><rect fill="#F1F1F1" height="36.2969" rx="2.5" ry="2.5" style="stroke:#181818;stroke-width:0.5;" width="130.0039" x="912" y="103"/><text fill="#000000" font-family="sans-serif" font-size="14" lengthAdjust="spacing" textLength="110.0039" x="922" y="125.9951">Reporting Tools</text></g><!--entity DeliveryApp--><g id="elem_DeliveryApp"><rect fill="#F1F1F1" height="36.2969" rx="2.5" ry="2.5" style="stroke:#181818;stroke-width:0.5;" width="109.9131" x="1684" y="103"/><text fill="#000000" font-family="sans-serif" font-size="14" lengthAdjust="spacing" textLength="89.9131" x="1694" y="125.9951">Delivery App</text></g><!--entity RoutePlanner--><g id="elem_RoutePlanner"><rect fill="#F1F1F1" height="36.2969" rx="2.5" ry="2.5" style="stroke:#181818;stroke-width:0.5;" width="118.7451" x="2005.5" y="103"/><text fill="#000000" font-family="sans-serif" font-size="14" lengthAdjust="spacing" textLength="98.7451" x="2015.5" y="125.9951">Route Planner</text></g><!--entity PackageScanner--><g id="elem_PackageScanner"><rect fill="#F1F1F1" height="36.2969" rx="2.5" ry="2.5" style="stroke:#181818;stroke-width:0.5;" width="140.6338" x="1829.5" y="103"/><text fill="#000000" font-family="sans-serif" font-size="14" lengthAdjust="spacing" textLength="120.6338" x="1839.5" y="125.9951">Package Scanner</text></g><!--entity WarehouseDashboard--><g id="elem_WarehouseDashboard"><rect fill="#F1F1F1" height="36.2969" rx="2.5" ry="2.5" style="stroke:#181818;stroke-width:0.5;" width="179.6602" x="1098" y="103"/><text fill="#000000" font-family="sans-serif" font-size="14" lengthAdjust="spacing" textLength="159.6602" x="1108" y="125.9951">Warehouse Dashboard</text></g><!--entity InventoryManager--><g id="elem_InventoryManager"><rect fill="#F1F1F1" height="36.2969" rx="2.5" ry="2.5" style="stroke:#181818;stroke-width:0.5;" width="152.6855" x="1474.5" y="103"/><text fill="#000000" font-family="sans-serif" font-size="14" lengthAdjust="spacing" textLength="132.6855" x="1484.5" y="125.9951">Inventory Manager</text></g><!--entity PackageSorter--><g id="elem_PackageSorter"><rect fill="#F1F1F1" height="36.2969" rx="2.5" ry="2.5" style="stroke:#181818;stroke-width:0.5;" width="126.4219" x="1313" y="103"/><text fill="#000000" font-family="sans-serif" font-size="14" lengthAdjust="spacing" textLength="106.4219" x="1323" y="125.9951">Package Sorter</text></g><!--entity AuthService--><g id="elem_AuthService"><rect fill="#F1F1F1" height="36.2969" rx="2.5" ry="2.5" style="stroke:#181818;stroke-width:0.5;" width="109.0039" x="265.5" y="325"/><text fill="#000000" font-family="sans-serif" font-size="14" lengthAdjust="spacing" textLength="89.0039" x="275.5" y="347.9951">Auth Service</text></g><!--entity JWTManager--><g id="elem_JWTManager"><rect fill="#F1F1F1" height="36.2969" rx="2.5" ry="2.5" style="stroke:#181818;stroke-width:0.5;" width="112.3398" x="213" y="480"/><text fill="#000000" font-family="sans-serif" font-size="14" lengthAdjust="spacing" textLength="92.3398" x="223" y="502.9951">JWT Manager</text></g><!--entity ProfileManagement--><g id="elem_ProfileManagement"><rect fill="#F1F1F1" height="36.2969" rx="2.5" ry="2.5" style="stroke:#181818;stroke-width:0.5;" width="160.7588" x="69.5" y="325"/><text fill="#000000" font-family="sans-serif" font-size="14" lengthAdjust="spacing" textLength="140.7588" x="79.5" y="347.9951">Profile Management</text></g><!--entity ShipmentTracker--><g id="elem_ShipmentTracker"><rect fill="#F1F1F1" height="36.2969" rx="2.5" ry="2.5" style="stroke:#181818;stroke-width:0.5;" width="144.6602" x="431.5" y="325"/><text fill="#000000" font-family="sans-serif" font-size="14" lengthAdjust="spacing" textLength="124.6602" x="441.5" y="347.9951">Shipment Tracker</text></g><!--entity JobScheduler--><g id="elem_JobScheduler"><rect fill="#F1F1F1" height="36.2969" rx="2.5" ry="2.5" style="stroke:#181818;stroke-width:0.5;" width="116.1201" x="783" y="325"/><text fill="#000000" font-family="sans-serif" font-size="14" lengthAdjust="spacing" textLength="96.1201" x="793" y="347.9951">Job Scheduler</text></g><!--entity AnalyticsEngine--><g id="elem_AnalyticsEngine"><rect fill="#F1F1F1" height="36.2969" rx="2.5" ry="2.5" style="stroke:#181818;stroke-width:0.5;" width="136.0059" x="612" y="325"/><text fill="#000000" font-family="sans-serif" font-size="14" lengthAdjust="spacing" textLength="116.0059" x="622" y="347.9951">Analytics Engine</text></g><!--entity SearchService--><g id="elem_SearchService"><rect fill="#F1F1F1" height="36.2969" rx="2.5" ry="2.5" style="stroke:#181818;stroke-width:0.5;" width="124.5967" x="934.5" y="325"/><text fill="#000000" font-family="sans-serif" font-size="14" lengthAdjust="spacing" textLength="104.5967" x="944.5" y="347.9951">Search Service</text></g><!--entity NotificationManager--><g id="elem_NotificationManager"><rect fill="#F1F1F1" height="36.2969" rx="2.5" ry="2.5" style="stroke:#181818;stroke-width:0.5;" width="166.1455" x="592" y="480"/><text fill="#000000" font-family="sans-serif" font-size="14" lengthAdjust="spacing" textLength="146.1455" x="602" y="502.9951">Notification Manager</text></g><!--entity EmailService--><g id="elem_EmailService"><rect fill="#F1F1F1" height="36.2969" rx="2.5" ry="2.5" style="stroke:#181818;stroke-width:0.5;" width="115.0332" x="431.5" y="639.5"/><text fill="#000000" font-family="sans-serif" font-size="14" lengthAdjust="spacing" textLength="95.0332" x="441.5" y="662.4951">Email Service</text></g><!--entity SMSService--><g id="elem_SMSService"><rect fill="#F1F1F1" height="36.2969" rx="2.5" ry="2.5" style="stroke:#181818;stroke-width:0.5;" width="106.0439" x="582" y="639.5"/><text fill="#000000" font-family="sans-serif" font-size="14" lengthAdjust="spacing" textLength="86.0439" x="592" y="662.4951">SMS Service</text></g><!--entity PushNotifications--><g id="elem_PushNotifications"><rect fill="#F1F1F1" height="36.2969" rx="2.5" ry="2.5" style="stroke:#181818;stroke-width:0.5;" width="145.5557" x="723" y="639.5"/><text fill="#000000" font-family="sans-serif" font-size="14" lengthAdjust="spacing" textLength="125.5557" x="733" y="662.4951">Push Notifications</text></g><!--entity MainDatabase--><g id="elem_MainDatabase"><path d="M1306.5,645 C1306.5,635 1368.8359,635 1368.8359,635 C1368.8359,635 1431.1719,635 1431.1719,645 L1431.1719,670.2969 C1431.1719,680.2969 1368.8359,680.2969 1368.8359,680.2969 C1368.8359,680.2969 1306.5,680.2969 1306.5,670.2969 L1306.5,645 " fill="#F1F1F1" style="stroke:#181818;stroke-width:0.5;"/><path d="M1306.5,645 C1306.5,655 1368.8359,655 1368.8359,655 C1368.8359,655 1431.1719,655 1431.1719,645 " fill="none" style="stroke:#181818;stroke-width:0.5;"/><text fill="#000000" font-family="sans-serif" font-size="14" lengthAdjust="spacing" textLength="104.6719" x="1316.5" y="671.9951">Main Database</text></g><!--entity RedisCache--><g id="elem_RedisCache"><path d="M1467,645 C1467,635 1520.1997,635 1520.1997,635 C1520.1997,635 1573.3994,635 1573.3994,645 L1573.3994,670.2969 C1573.3994,680.2969 1520.1997,680.2969 1520.1997,680.2969 C1520.1997,680.2969 1467,680.2969 1467,670.2969 L1467,645 " fill="#F1F1F1" style="stroke:#181818;stroke-width:0.5;"/><path d="M1467,645 C1467,655 1520.1997,655 1520.1997,655 C1520.1997,655 1573.3994,655 1573.3994,645 " fill="none" style="stroke:#181818;stroke-width:0.5;"/><text fill="#000000" font-family="sans-serif" font-size="14" lengthAdjust="spacing" textLength="86.3994" x="1477" y="671.9951">Redis Cache</text></g><!--entity AuditLogs--><g id="elem_AuditLogs"><path d="M1608,645 C1608,635 1654.856,635 1654.856,635 C1654.856,635 1701.7119,635 1701.7119,645 L1701.7119,670.2969 C1701.7119,680.2969 1654.856,680.2969 1654.856,680.2969 C1654.856,680.2969 1608,680.2969 1608,670.2969 L1608,645 " fill="#F1F1F1" style="stroke:#181818;stroke-width:0.5;"/><path d="M1608,645 C1608,655 1654.856,655 1654.856,655 C1654.856,655 1701.7119,655 1701.7119,645 " fill="none" style="stroke:#181818;stroke-width:0.5;"/><text fill="#000000" font-family="sans-serif" font-size="14" lengthAdjust="spacing" textLength="73.7119" x="1618" y="671.9951">Audit Logs</text></g><!--entity BackupStorage--><g id="elem_BackupStorage"><path d="M1140.5,645 C1140.5,635 1205.9873,635 1205.9873,635 C1205.9873,635 1271.4746,635 1271.4746,645 L1271.4746,670.2969 C1271.4746,680.2969 1205.9873,680.2969 1205.9873,680.2969 C1205.9873,680.2969 1140.5,680.2969 1140.5,670.2969 L1140.5,645 " fill="#F1F1F1" style="stroke:#181818;stroke-width:0.5;"/><path d="M1140.5,645 C1140.5,655 1205.9873,655 1205.9873,655 C1205.9873,655 1271.4746,655 1271.4746,645 " fill="none" style="stroke:#181818;stroke-width:0.5;"/><text fill="#000000" font-family="sans-serif" font-size="14" lengthAdjust="spacing" textLength="110.9746" x="1150.5" y="671.9951">Backup Storage</text></g><!--entity CarrierAPI--><g id="elem_CarrierAPI"><rect fill="#F1F1F1" height="36.2969" rx="2.5" ry="2.5" style="stroke:#181818;stroke-width:0.5;" width="94.7236" x="1370.5" y="325"/><text fill="#000000" font-family="sans-serif" font-size="14" lengthAdjust="spacing" textLength="74.7236" x="1380.5" y="347.9951">Carrier API</text></g><!--entity PaymentGateway--><g id="elem_PaymentGateway"><rect fill="#F1F1F1" height="36.2969" rx="2.5" ry="2.5" style="stroke:#181818;stroke-width:0.5;" width="148.2148" x="1187" y="325"/><text fill="#000000" font-family="sans-serif" font-size="14" lengthAdjust="spacing" textLength="128.2148" x="1197" y="347.9951">Payment Gateway</text></g><!--entity MapsService--><g id="elem_MapsService"><rect fill="#F1F1F1" height="36.2969" rx="2.5" ry="2.5" style="stroke:#181818;stroke-width:0.5;" width="113.0303" x="1500.5" y="325"/><text fill="#000000" font-family="sans-serif" font-size="14" lengthAdjust="spacing" textLength="93.0303" x="1510.5" y="347.9951">Maps Service</text></g><!--entity WeatherAPI--><g id="elem_WeatherAPI"><rect fill="#F1F1F1" height="36.2969" rx="2.5" ry="2.5" style="stroke:#181818;stroke-width:0.5;" width="106.3652" x="1649" y="325"/><text fill="#000000" font-family="sans-serif" font-size="14" lengthAdjust="spacing" textLength="86.3652" x="1659" y="347.9951">Weather API</text></g><!--link UI to AuthService--><g id="link_UI_AuthService"><path d="M115.18,139.31 C127.38,160.41 151.05,195.29 182,212 C208,226.04 223.27,203.83 248,220 C286.08,244.9 304.9313,291.7928 313.4513,319.0728 " fill="none" id="UI-to-AuthService" style="stroke:#181818;stroke-width:1;"/><polygon fill="#181818" points="315.24,324.8,316.3751,315.0168,313.7494,320.0274,308.7388,317.4017,315.24,324.8" style="stroke:#181818;stroke-width:1;"/><text fill="#000000" font-family="sans-serif" font-size="13" lengthAdjust="spacing" textLength="83.624" x="183" y="208.0669">Authenticate</text></g><!--link MobileApp to AuthService--><g id="link_MobileApp_AuthService"><path d="M255.49,139.26 C268.58,180.39 299.651,278.0524 312.711,319.1024 " fill="none" id="MobileApp-to-AuthService" style="stroke:#181818;stroke-width:1;"/><polygon fill="#181818" points="314.53,324.82,315.6132,315.0309,313.0141,320.0553,307.9897,317.4563,314.53,324.82" style="stroke:#181818;stroke-width:1;"/><text fill="#000000" font-family="sans-serif" font-size="13" lengthAdjust="spacing" textLength="83.624" x="278" y="208.0669">Authenticate</text></g><!--link CustomerFeatures to ShipmentTracker--><g id="link_CustomerFeatures_ShipmentTracker"><path d="M418.3,139.26 C435.68,180.39 477.0541,278.2434 494.4041,319.2934 " fill="none" id="CustomerFeatures-to-ShipmentTracker" style="stroke:#181818;stroke-width:1;"/><polygon fill="#181818" points="496.74,324.82,496.9206,314.9728,494.7934,320.2145,489.5518,318.0873,496.74,324.82" style="stroke:#181818;stroke-width:1;"/><text fill="#000000" font-family="sans-serif" font-size="13" lengthAdjust="spacing" textLength="102.4131" x="448" y="208.0669">Track Shipment</text></g><!--link AdminDashboard to AuthService--><g id="link_AdminDashboard_AuthService"><path d="M611.43,139.15 C603.51,160.41 586.8,195.83 559,212 C531.3,228.12 443.39,205.13 415,220 C370.77,243.16 343.231,291.6487 330.071,319.3987 " fill="none" id="AdminDashboard-to-AuthService" style="stroke:#181818;stroke-width:1;"/><polygon fill="#181818" points="327.5,324.82,334.9706,318.4021,329.6425,320.3023,327.7422,314.9741,327.5,324.82" style="stroke:#181818;stroke-width:1;"/><text fill="#000000" font-family="sans-serif" font-size="13" lengthAdjust="spacing" textLength="83.624" x="580" y="208.0669">Authenticate</text></g><!--link SystemMonitoring to AnalyticsEngine--><g id="link_SystemMonitoring_AnalyticsEngine"><path d="M791.51,139.26 C768.89,180.39 714.9218,278.5128 692.3418,319.5628 " fill="none" id="SystemMonitoring-to-AnalyticsEngine" style="stroke:#181818;stroke-width:1;"/><polygon fill="#181818" points="689.45,324.82,697.2924,318.8621,691.8598,320.439,690.2829,315.0064,689.45,324.82" style="stroke:#181818;stroke-width:1;"/><text fill="#000000" font-family="sans-serif" font-size="13" lengthAdjust="spacing" textLength="49.4165" x="760" y="208.0669">Monitor</text></g><!--link ReportingTools to AuditLogs--><g id="link_ReportingTools_AuditLogs"><path d="M997.18,139.04 C1018.38,157.58 1051.94,188.77 1076,220 C1127.64,287.03 1108.23,328.25 1171,385 C1246.7,453.44 1509.73,509.98 1590,573 C1611.96,590.24 1627.5553,611.3775 1639.2053,629.8175 " fill="none" id="ReportingTools-to-AuditLogs" style="stroke:#181818;stroke-width:1;"/><polygon fill="#181818" points="1642.41,634.89,1640.9846,625.1448,1639.7394,630.6629,1634.2213,629.4177,1642.41,634.89" style="stroke:#181818;stroke-width:1;"/><text fill="#000000" font-family="sans-serif" font-size="13" lengthAdjust="spacing" textLength="78.0317" x="1208" y="406.0669">Log Reports</text></g><!--link DeliveryApp to AuthService--><g id="link_DeliveryApp_AuthService"><path d="M1719.82,139.2 C1701.65,154.44 1672.93,175.93 1644,187 C1564.45,217.44 1538.97,206.11 1454,212 C1439.6,213 427.94,213.61 415,220 C370.22,242.1 342.8768,291.0434 329.8968,319.1334 " fill="none" id="DeliveryApp-to-AuthService" style="stroke:#181818;stroke-width:1;"/><polygon fill="#181818" points="327.38,324.58,334.7863,318.0879,329.4773,320.0411,327.5241,314.7322,327.38,324.58" style="stroke:#181818;stroke-width:1;"/><text fill="#000000" font-family="sans-serif" font-size="13" lengthAdjust="spacing" textLength="83.624" x="1618" y="208.0669">Authenticate</text></g><!--link RoutePlanner to MapsService--><g id="link_RoutePlanner_MapsService"><path d="M2050.01,139.09 C2035.68,154.25 2012.65,175.7 1988,187 C1967.54,196.38 1959.34,187.85 1938,195 C1922.73,200.12 1921.57,207.88 1906,212 C1876.56,219.79 1658.36,204.75 1632,220 C1591.97,243.15 1572.3224,291.3471 1563.5824,319.0971 " fill="none" id="RoutePlanner-to-MapsService" style="stroke:#181818;stroke-width:1;"/><polygon fill="#181818" points="1561.78,324.82,1568.2989,317.4373,1563.282,320.0509,1560.6684,315.0341,1561.78,324.82" style="stroke:#181818;stroke-width:1;"/><text fill="#000000" font-family="sans-serif" font-size="13" lengthAdjust="spacing" textLength="78.4126" x="1939" y="208.0669">Fetch Route</text></g><!--link RoutePlanner to WeatherAPI--><g id="link_RoutePlanner_WeatherAPI"><path d="M2061.7,139.16 C2057.02,159.14 2046.63,191.93 2026,212 C1949.66,286.28 1831.3188,318.6903 1760.9388,332.4303 " fill="none" id="RoutePlanner-to-WeatherAPI" style="stroke:#181818;stroke-width:1;"/><polygon fill="#181818" points="1755.05,333.58,1764.6497,335.7814,1759.9574,332.622,1763.1168,327.9296,1755.05,333.58" style="stroke:#181818;stroke-width:1;"/><text fill="#000000" font-family="sans-serif" font-size="13" lengthAdjust="spacing" textLength="82.7988" x="2040" y="208.0669">Get Weather</text></g><!--link PackageScanner to ShipmentTracker--><g id="link_PackageScanner_ShipmentTracker"><path d="M1880.56,139.14 C1863.47,153.5 1837.43,173.73 1812,187 C1781.22,203.06 1772.24,206.25 1738,212 C1706.66,217.26 622.32,205.58 594,220 C550.38,242.22 524.9743,291.0269 513.0643,319.0869 " fill="none" id="PackageScanner-to-ShipmentTracker" style="stroke:#181818;stroke-width:1;"/><polygon fill="#181818" points="510.72,324.61,517.9184,317.8882,512.6735,320.0074,510.5543,314.7625,510.72,324.61" style="stroke:#181818;stroke-width:1;"/><text fill="#000000" font-family="sans-serif" font-size="13" lengthAdjust="spacing" textLength="92.6377" x="1796" y="208.0669">Update Status</text></g><!--link WarehouseDashboard to AuthService--><g id="link_WarehouseDashboard_AuthService"><path d="M1160.8,139.26 C1135.28,154.53 1095.55,176.05 1058,187 C955.04,217.02 925.04,205.37 818,212 C795.65,213.38 435.02,209.97 415,220 C370.36,242.37 342.9715,291.2002 329.9415,319.2002 " fill="none" id="WarehouseDashboard-to-AuthService" style="stroke:#181818;stroke-width:1;"/><polygon fill="#181818" points="327.41,324.64,334.8337,318.1679,329.5196,320.1068,327.5806,314.7926,327.41,324.64" style="stroke:#181818;stroke-width:1;"/><text fill="#000000" font-family="sans-serif" font-size="13" lengthAdjust="spacing" textLength="83.624" x="1025" y="208.0669">Authenticate</text></g><!--link InventoryManager to MainDatabase--><g id="link_InventoryManager_MainDatabase"><path d="M1556.56,139.17 C1564.46,160.47 1581.15,195.91 1609,212 C1624.61,221.01 1758.57,206.95 1771,220 C1821.56,273.12 1807.51,321.4 1771,385 C1688.49,528.72 1579.14,470.4 1449,573 C1425.35,591.64 1405.8526,612.5527 1390.5326,630.4427 " fill="none" id="InventoryManager-to-MainDatabase" style="stroke:#181818;stroke-width:1;"/><polygon fill="#181818" points="1386.63,635,1395.5222,630.7658,1389.8822,631.2022,1389.4458,625.5622,1386.63,635" style="stroke:#181818;stroke-width:1;"/><text fill="#000000" font-family="sans-serif" font-size="13" lengthAdjust="spacing" textLength="110.957" x="1766" y="406.0669">Access Inventory</text></g><!--link PackageSorter to JobScheduler--><g id="link_PackageSorter_JobScheduler"><path d="M1374.08,139.07 C1370.68,160.26 1361.47,195.6 1337,212 C1317.61,224.99 937.29,208.48 917,220 C876.64,242.92 856.6413,291.2163 847.7213,319.0463 " fill="none" id="PackageSorter-to-JobScheduler" style="stroke:#181818;stroke-width:1;"/><polygon fill="#181818" points="845.89,324.76,852.4461,317.4104,847.4161,319.9986,844.8279,314.9686,845.89,324.76" style="stroke:#181818;stroke-width:1;"/><text fill="#000000" font-family="sans-serif" font-size="13" lengthAdjust="spacing" textLength="90.6826" x="1355" y="208.0669">Schedule Jobs</text></g><!--link AuthService to JWTManager--><g id="link_AuthService_JWTManager"><path d="M314.25,361.25 C304.45,390.64 286.5368,444.3777 276.7068,473.8777 " fill="none" id="AuthService-to-JWTManager" style="stroke:#181818;stroke-width:1;"/><polygon fill="#181818" points="274.81,479.57,281.45,472.2961,276.3907,474.8264,273.8603,469.767,274.81,479.57" style="stroke:#181818;stroke-width:1;"/><text fill="#000000" font-family="sans-serif" font-size="13" lengthAdjust="spacing" textLength="104.5078" x="305" y="406.0669">Generate Token</text></g><!--link ShipmentTracker to NotificationManager--><g id="link_ShipmentTracker_NotificationManager"><path d="M523.28,361.25 C556.21,390.72 618.4386,446.3892 651.3186,475.8092 " fill="none" id="ShipmentTracker-to-NotificationManager" style="stroke:#181818;stroke-width:1;"/><polygon fill="#181818" points="655.79,479.81,651.7502,470.8278,652.0639,476.476,646.4157,476.7896,655.79,479.81" style="stroke:#181818;stroke-width:1;"/><text fill="#000000" font-family="sans-serif" font-size="13" lengthAdjust="spacing" textLength="79.1934" x="576" y="406.0669">Notify Users</text></g><!--link ShipmentTracker to CarrierAPI--><g id="link_ShipmentTracker_CarrierAPI"><path d="M512.16,324.82 C525.15,298.42 553.29,250.51 594,231 C669.95,194.6 1278.87,189.21 1352,231 C1387.27,251.16 1403.8685,292.5863 1411.6285,318.8263 " fill="none" id="ShipmentTracker-to-CarrierAPI" style="stroke:#181818;stroke-width:1;"/><polygon fill="#181818" points="1413.33,324.58,1414.6135,314.8151,1411.912,319.7853,1406.9419,317.0839,1413.33,324.58" style="stroke:#181818;stroke-width:1;"/><text fill="#000000" font-family="sans-serif" font-size="13" lengthAdjust="spacing" textLength="81.5166" x="1253.5" y="208.0669">Fetch Status</text></g><!--link CarrierAPI to ShipmentTracker--><g id="link_CarrierAPI_ShipmentTracker"><path d="M1414.4,324.95 C1406.65,291.97 1384.87,223.5 1334.5,203.5 C1297.17,188.68 648.83,188.68 611.5,203.5 C557.22,225.05 526.3673,286.5449 513.0373,319.2049 " fill="none" id="CarrierAPI-to-ShipmentTracker" style="stroke:#181818;stroke-width:1;"/><polygon fill="#181818" points="510.77,324.76,517.8744,317.9388,512.6594,320.1307,510.4675,314.9158,510.77,324.76" style="stroke:#181818;stroke-width:1;"/></g><!--link JobScheduler to NotificationManager--><g id="link_JobScheduler_NotificationManager"><path d="M822.28,361.25 C790.31,390.72 729.9819,446.3237 698.0619,475.7437 " fill="none" id="JobScheduler-to-NotificationManager" style="stroke:#181818;stroke-width:1;"/><polygon fill="#181818" points="693.65,479.81,702.9787,476.6517,697.3266,476.4214,697.5569,470.7692,693.65,479.81" style="stroke:#181818;stroke-width:1;"/><text fill="#000000" font-family="sans-serif" font-size="13" lengthAdjust="spacing" textLength="125.4678" x="789" y="406.0669">Trigger Notification</text></g><!--link AnalyticsEngine to MainDatabase--><g id="link_AnalyticsEngine_MainDatabase"><path d="M708.03,361.01 C724.1,369.85 745.01,379.86 765,385 C781.06,389.13 901.55,382.05 914,393 C963.88,436.87 892.88,494.21 941,540 C1002.06,598.11 1045.06,557.33 1129,565 C1146.73,566.62 1272.81,565.61 1289,573 C1317.85,586.18 1338.1366,609.9725 1352.0666,630.0225 " fill="none" id="AnalyticsEngine-to-MainDatabase" style="stroke:#181818;stroke-width:1;"/><polygon fill="#181818" points="1355.49,634.95,1353.6398,625.2765,1352.6371,630.8438,1347.0699,629.8411,1355.49,634.95" style="stroke:#181818;stroke-width:1;"/><text fill="#000000" font-family="sans-serif" font-size="13" lengthAdjust="spacing" textLength="86.3979" x="942" y="502.5669">Analyze Data</text></g><!--link SearchService to RedisCache--><g id="link_SearchService_RedisCache"><path d="M1005.67,361.02 C1027.91,404.07 1087.59,515.6 1121,540 C1189.83,590.26 1430.3,563.96 1449,573 C1476.07,586.09 1493.7149,609.6661 1505.5949,629.7461 " fill="none" id="SearchService-to-RedisCache" style="stroke:#181818;stroke-width:1;"/><polygon fill="#181818" points="1508.65,634.91,1507.5099,625.1274,1506.104,630.6067,1500.6247,629.2009,1508.65,634.91" style="stroke:#181818;stroke-width:1;"/><text fill="#000000" font-family="sans-serif" font-size="13" lengthAdjust="spacing" textLength="94.7578" x="1122" y="502.5669">Cache Queries</text></g><!--link NotificationManager to MainDatabase--><g id="link_NotificationManager_MainDatabase"><path d="M698.96,516.07 C723.14,532.19 762.2,555.31 800,565 C826.32,571.75 1264.1,562.13 1289,573 C1318.07,585.69 1338.3377,609.571 1352.1977,629.791 " fill="none" id="NotificationManager-to-MainDatabase" style="stroke:#181818;stroke-width:1;"/><polygon fill="#181818" points="1355.59,634.74,1353.8008,625.055,1352.7631,630.6159,1347.2022,629.5781,1355.59,634.74" style="stroke:#181818;stroke-width:1;"/><text fill="#000000" font-family="sans-serif" font-size="13" lengthAdjust="spacing" textLength="108.9448" x="801" y="561.0669">Log Notifications</text></g><!--link NotificationManager to EmailService--><g id="link_NotificationManager_EmailService"><path d="M644.81,516.28 C621.63,530.2 589.39,551.02 564,573 C540.13,593.66 520.1862,616.9232 506.0062,634.6632 " fill="none" id="NotificationManager-to-EmailService" style="stroke:#181818;stroke-width:1;"/><polygon fill="#181818" points="502.26,639.35,511.0039,634.8174,505.3819,635.4444,504.7548,629.8224,502.26,639.35" style="stroke:#181818;stroke-width:1;"/></g><!--link NotificationManager to SMSService--><g id="link_NotificationManager_SMSService"><path d="M670.64,516.16 C662.95,546.45 648.5164,603.2645 640.8264,633.5545 " fill="none" id="NotificationManager-to-SMSService" style="stroke:#181818;stroke-width:1;"/><polygon fill="#181818" points="639.35,639.37,645.4417,631.631,640.5804,634.5237,637.6876,629.6624,639.35,639.37" style="stroke:#181818;stroke-width:1;"/></g><!--link NotificationManager to PushNotifications--><g id="link_NotificationManager_PushNotifications"><path d="M688.18,516.16 C711.45,546.45 755.9147,604.322 779.1847,634.612 " fill="none" id="NotificationManager-to-PushNotifications" style="stroke:#181818;stroke-width:1;"/><polygon fill="#181818" points="782.84,639.37,780.5291,629.7961,779.7939,635.405,774.185,634.6698,782.84,639.37" style="stroke:#181818;stroke-width:1;"/></g><!--link PaymentGateway to ShipmentTracker--><g id="link_PaymentGateway_ShipmentTracker"><path d="M1252.87,324.92 C1237.11,292.53 1198.91,225.9 1142.5,203.5 C1087.67,181.73 666.33,181.73 611.5,203.5 C557.22,225.05 526.3673,286.5449 513.0373,319.2049 " fill="none" id="PaymentGateway-to-ShipmentTracker" style="stroke:#181818;stroke-width:1;"/><polygon fill="#181818" points="510.77,324.76,517.8744,317.9388,512.6594,320.1307,510.4675,314.9158,510.77,324.76" style="stroke:#181818;stroke-width:1;"/></g><!--link DeliveryApp to MapsService--><g id="link_DeliveryApp_MapsService"><path d="M1743.31,139.29 C1747.25,159.69 1749.93,193.22 1731,212 C1715.33,227.54 1650.82,208.46 1632,220 C1592.79,244.05 1572.9469,291.3478 1563.9269,318.8978 " fill="none" id="DeliveryApp-to-MapsService" style="stroke:#181818;stroke-width:1;"/><polygon fill="#181818" points="1562.06,324.6,1568.6618,317.2914,1563.6158,319.8482,1561.0589,314.8022,1562.06,324.6" style="stroke:#181818;stroke-width:1;"/></g><!--SRC=[XLPDRziu4BthLn3QmvuAk0ji4_TGGF57aKMzo4OEUbZiWPOcDX6P54WghRleV-_mGn8fquukDX_VYFDcE3DIBuotLD8ZgSIn5HouBlMf0IAXqfJl6yZKG547MejlZE_9CsrKkBEZrSjUYexN2z48IRIaNE4MlYvWrLJJ7LNWJgY5LbdsErbBmJNmcdoX9v1PYw-YUo1vZEVa_upWCsmlEgN54IIvHvPyfXNavBVvRBMQpppLF8Cgyk-J2id_4Qh8qpr9CJTYnz31ecqjoornbIGFVgo1waw2iZOzseFEz6SMQoZg8-EHW6Avl5rzI0jmx2LLXvsWihRdM6o0KbRbIMaueWZEj92OF6ldq15CIdk4LaXjThT2D4xOW5aeBMi93Ni5UOgKhV6PpzFA1eC-v3rmAUYFejD07XhAEKZdbq4ya3HvyDwLrMZaCG-bnNp5MtmGdOA9chiFY_TfDQD5dAi17-2ae_Vy5Ny5HcD3ERhWN1rG3rxNY2cQIBH8h_2dgRiIv2khO5fs4NnMTKMd3tWKgwXcWcCWRcyMgzNTXGkBvFuOTriHwD-VClZhwpOIZUkhSgLuDeNgE4V4d6G7ZsWwiGiXeVTEeP9bSJDRNYYzyi1Q-wQjH7FlNGzwBAr8xF367Q3kcbwJs0r0qgJWj3bXX1LPyJtZFd8zwB2aOGbKLd707HI5V1g6luLcppwVOJZMw-BFsOLM6jc42GithcLkTQIiYJoroBMxKMxAMDgcl4P_wDGXSiUrBmD7Q5GIInnGfCGgCv6Pr4Mubri7FCz4wkQF_kBqCuxa6sgxjLjQ2uFqm8Jy23N3gK7nPkIkpUBQBYV4egkP9b_4NkMked1fLXFQ7RhTjP6_3lA8qxlwZaq1RzQGzr7ksHPUYPlR-Mo-y4B34KYbP9Zfuk7U3J-tnYN9pZhKoTRHPwhX6ptv5cKn3vsPR6YheimR84fzs7jntXu2L_pQkc8bFqBZ4e_5g_0hvsYoX1IYw16C1IvR2QyC6pMf6TtZXqk6tmdltdsAsjV7g1T2derV2MzIppuEZCMqcw2L_Jjiv5aMJ_kt3pgRyjPYqahGoZFoR3BTtG7-XXaY_lel08NkX5FwJL-Y0MtOOHgHlGQDpSko4kGWZyZz3Bf7ycmon2_4ygd5ui1-hp7anlV4C7vJmjaCTZB6ehOc5HPBCAz71zq8DZRH342RVc4sZ7EX5vO_pa6h7dKQCLln0XopF55hB5AD-ADlzYTYFeLLsZ2etI4fVT0Yjw-SifLiR_w6staslNV9u1dE3x1j4_sBffVXZstHiDsVVpf0ZqtOKkwaJZ6tE1e2-KNJS2nT98sZw2BbREvaMH3fn9tD9bqnHPdMNr1Hlm00]--></g></svg>