<svg xmlns="http://www.w3.org/2000/svg" xmlns:xlink="http://www.w3.org/1999/xlink" contentStyleType="text/css" height="865.6px" preserveAspectRatio="none" style="width:3024px;height:865px;" version="1.1" viewBox="0 0 3024 865" width="3024.8px" zoomAndPan="magnify"><defs/><g><!--cluster Frontend Layer--><g id="cluster_Frontend Layer"><polygon fill="none" points="12.8,12.8,20.8,4.8,1932,4.8,1932,136,1924,144,12.8,144,12.8,12.8" style="stroke:#181818;stroke-width:0.8;"/><line style="stroke:#181818;stroke-width:0.8;" x1="1924" x2="1932" y1="12.8" y2="4.8"/><line style="stroke:#181818;stroke-width:0.8;" x1="12.8" x2="1924" y1="12.8" y2="12.8"/><line style="stroke:#181818;stroke-width:0.8;" x1="1924" x2="1924" y1="12.8" y2="144"/><text fill="#000000" font-family="sans-serif" font-size="11.2" font-weight="bold" lengthAdjust="spacing" textLength="96.7969" x="920.8016" y="25.5961">Frontend Layer</text></g><!--cluster Customer Interface--><g id="cluster_Customer Interface"><polygon fill="#90EE90" points="968.8,51.2,976.8,43.2,1396,43.2,1396,116.8,1388,124.8,968.8,124.8,968.8,51.2" style="stroke:#181818;stroke-width:0.8;"/><line style="stroke:#181818;stroke-width:0.8;" x1="1388" x2="1396" y1="51.2" y2="43.2"/><line style="stroke:#181818;stroke-width:0.8;" x1="968.8" x2="1388" y1="51.2" y2="51.2"/><line style="stroke:#181818;stroke-width:0.8;" x1="1388" x2="1388" y1="51.2" y2="124.8"/><text fill="#000000" font-family="sans-serif" font-size="11.2" font-weight="bold" lengthAdjust="spacing" textLength="121.8766" x="1118.2617" y="63.9961">Customer Interface</text></g><!--cluster Admin Interface--><g id="cluster_Admin Interface"><polygon fill="#ADD8E6" points="477.6,51.2,485.6,43.2,949.6,43.2,949.6,116.8,941.6,124.8,477.6,124.8,477.6,51.2" style="stroke:#181818;stroke-width:0.8;"/><line style="stroke:#181818;stroke-width:0.8;" x1="941.6" x2="949.6" y1="51.2" y2="43.2"/><line style="stroke:#181818;stroke-width:0.8;" x1="477.6" x2="941.6" y1="51.2" y2="51.2"/><line style="stroke:#181818;stroke-width:0.8;" x1="941.6" x2="941.6" y1="51.2" y2="124.8"/><text fill="#000000" font-family="sans-serif" font-size="11.2" font-weight="bold" lengthAdjust="spacing" textLength="101.3469" x="659.7266" y="63.9961">Admin Interface</text></g><!--cluster Warehouse Interface--><g id="cluster_Warehouse Interface"><polygon fill="#FFC0CB" points="1415.2,51.2,1423.2,43.2,1912.8,43.2,1912.8,116.8,1904.8,124.8,1415.2,124.8,1415.2,51.2" style="stroke:#181818;stroke-width:0.8;"/><line style="stroke:#181818;stroke-width:0.8;" x1="1904.8" x2="1912.8" y1="51.2" y2="43.2"/><line style="stroke:#181818;stroke-width:0.8;" x1="1415.2" x2="1904.8" y1="51.2" y2="51.2"/><line style="stroke:#181818;stroke-width:0.8;" x1="1904.8" x2="1904.8" y1="51.2" y2="124.8"/><text fill="#000000" font-family="sans-serif" font-size="11.2" font-weight="bold" lengthAdjust="spacing" textLength="132.1141" x="1594.743" y="63.9961">Warehouse Interface</text></g><!--cluster Delivery Interface--><g id="cluster_Delivery Interface"><polygon fill="#FFFF00" points="32,51.2,40,43.2,458.4,43.2,458.4,116.8,450.4,124.8,32,124.8,32,51.2" style="stroke:#181818;stroke-width:0.8;"/><line style="stroke:#181818;stroke-width:0.8;" x1="450.4" x2="458.4" y1="51.2" y2="43.2"/><line style="stroke:#181818;stroke-width:0.8;" x1="32" x2="450.4" y1="51.2" y2="51.2"/><line style="stroke:#181818;stroke-width:0.8;" x1="450.4" x2="450.4" y1="51.2" y2="124.8"/><text fill="#000000" font-family="sans-serif" font-size="11.2" font-weight="bold" lengthAdjust="spacing" textLength="113.4711" x="185.2645" y="63.9961">Delivery Interface</text></g><!--cluster Service Layer--><g id="cluster_Service Layer"><polygon fill="none" points="838.4,171.2,846.4,163.2,1924.8,163.2,1924.8,539.2,1916.8,547.2,838.4,547.2,838.4,171.2" style="stroke:#181818;stroke-width:0.8;"/><line style="stroke:#181818;stroke-width:0.8;" x1="1916.8" x2="1924.8" y1="171.2" y2="163.2"/><line style="stroke:#181818;stroke-width:0.8;" x1="838.4" x2="1916.8" y1="171.2" y2="171.2"/><line style="stroke:#181818;stroke-width:0.8;" x1="1916.8" x2="1916.8" y1="171.2" y2="547.2"/><text fill="#000000" font-family="sans-serif" font-size="11.2" font-weight="bold" lengthAdjust="spacing" textLength="85.575" x="1335.6125" y="183.9961">Service Layer</text></g><!--cluster Authentication--><g id="cluster_Authentication"><polygon fill="#87CEEB" points="857.6,209.6,865.6,201.6,1293.6,201.6,1293.6,275.2,1285.6,283.2,857.6,283.2,857.6,209.6" style="stroke:#181818;stroke-width:0.8;"/><line style="stroke:#181818;stroke-width:0.8;" x1="1285.6" x2="1293.6" y1="209.6" y2="201.6"/><line style="stroke:#181818;stroke-width:0.8;" x1="857.6" x2="1285.6" y1="209.6" y2="209.6"/><line style="stroke:#181818;stroke-width:0.8;" x1="1285.6" x2="1285.6" y1="209.6" y2="283.2"/><text fill="#000000" font-family="sans-serif" font-size="11.2" font-weight="bold" lengthAdjust="spacing" textLength="93.7891" x="1025.5055" y="222.3961">Authentication</text></g><!--cluster Core Services--><g id="cluster_Core Services"><polygon fill="#FFB6C1" points="1312.8,209.6,1320.8,201.6,1905.6,201.6,1905.6,275.2,1897.6,283.2,1312.8,283.2,1312.8,209.6" style="stroke:#181818;stroke-width:0.8;"/><line style="stroke:#181818;stroke-width:0.8;" x1="1897.6" x2="1905.6" y1="209.6" y2="201.6"/><line style="stroke:#181818;stroke-width:0.8;" x1="1312.8" x2="1897.6" y1="209.6" y2="209.6"/><line style="stroke:#181818;stroke-width:0.8;" x1="1897.6" x2="1897.6" y1="209.6" y2="283.2"/><text fill="#000000" font-family="sans-serif" font-size="11.2" font-weight="bold" lengthAdjust="spacing" textLength="86.1602" x="1562.9199" y="222.3961">Core Services</text></g><!--cluster Notification Services--><g id="cluster_Notification Services"><polygon fill="#FFA500" points="1481.6,369.6,1489.6,361.6,1905.6,361.6,1905.6,520,1897.6,528,1481.6,528,1481.6,369.6" style="stroke:#181818;stroke-width:0.8;"/><line style="stroke:#181818;stroke-width:0.8;" x1="1897.6" x2="1905.6" y1="369.6" y2="361.6"/><line style="stroke:#181818;stroke-width:0.8;" x1="1481.6" x2="1897.6" y1="369.6" y2="369.6"/><line style="stroke:#181818;stroke-width:0.8;" x1="1897.6" x2="1897.6" y1="369.6" y2="528"/><text fill="#000000" font-family="sans-serif" font-size="11.2" font-weight="bold" lengthAdjust="spacing" textLength="131.157" x="1624.8215" y="382.3961">Notification Services</text></g><!--cluster Data Storage--><g id="cluster_Data Storage"><polygon fill="#FFA500" points="1944,310.4,1952,302.4,3011.2,302.4,3011.2,844,3003.2,852,1944,852,1944,310.4" style="stroke:#181818;stroke-width:0.8;"/><line style="stroke:#181818;stroke-width:0.8;" x1="3003.2" x2="3011.2" y1="310.4" y2="302.4"/><line style="stroke:#181818;stroke-width:0.8;" x1="1944" x2="3003.2" y1="310.4" y2="310.4"/><line style="stroke:#181818;stroke-width:0.8;" x1="3003.2" x2="3003.2" y1="310.4" y2="852"/><text fill="#000000" font-family="sans-serif" font-size="11.2" font-weight="bold" lengthAdjust="spacing" textLength="83.475" x="2432.6625" y="323.1961">Data Storage</text></g><!--cluster bs--><g id="cluster_bs"><path d="M2060,732 C2060,724 2279.6,724 2279.6,724 C2279.6,724 2499.2,724 2499.2,732 L2499.2,818.4 C2499.2,826.4 2279.6,826.4 2279.6,826.4 C2279.6,826.4 2060,826.4 2060,818.4 L2060,732 " fill="none" style="stroke:#181818;stroke-width:0.8;"/><path d="M2060,732 C2060,740 2279.6,740 2279.6,740 C2279.6,740 2499.2,740 2499.2,732 " fill="none" style="stroke:#181818;stroke-width:0.8;"/><text fill="#000000" font-family="sans-serif" font-size="11.2" font-weight="bold" lengthAdjust="spacing" textLength="99.8813" x="2229.6594" y="751.9961">Backup Storage</text></g><!--cluster db--><g id="cluster_db"><path d="M2060,580.8 C2060,572.8 2477.6,572.8 2477.6,572.8 C2477.6,572.8 2895.2,572.8 2895.2,580.8 L2895.2,667.2 C2895.2,675.2 2477.6,675.2 2477.6,675.2 C2477.6,675.2 2060,675.2 2060,667.2 L2060,580.8 " fill="none" style="stroke:#181818;stroke-width:0.8;"/><path d="M2060,580.8 C2060,588.8 2477.6,588.8 2477.6,588.8 C2477.6,588.8 2895.2,588.8 2895.2,580.8 " fill="none" style="stroke:#181818;stroke-width:0.8;"/><text fill="#000000" font-family="sans-serif" font-size="11.2" font-weight="bold" lengthAdjust="spacing" textLength="94.0188" x="2430.5906" y="600.7961">Main Database</text></g><!--cluster rc--><g id="cluster_rc"><path d="M2492,355.2 C2492,347.2 2738.8,347.2 2738.8,347.2 C2738.8,347.2 2985.6,347.2 2985.6,355.2 L2985.6,441.6 C2985.6,449.6 2738.8,449.6 2738.8,449.6 C2738.8,449.6 2492,449.6 2492,441.6 L2492,355.2 " fill="none" style="stroke:#181818;stroke-width:0.8;"/><path d="M2492,355.2 C2492,363.2 2738.8,363.2 2738.8,363.2 C2738.8,363.2 2985.6,363.2 2985.6,355.2 " fill="none" style="stroke:#181818;stroke-width:0.8;"/><text fill="#000000" font-family="sans-serif" font-size="11.2" font-weight="bold" lengthAdjust="spacing" textLength="76.6281" x="2700.4859" y="375.1961">Redis Cache</text></g><!--cluster al--><g id="cluster_al"><path d="M1969.6,355.2 C1969.6,347.2 2214.8,347.2 2214.8,347.2 C2214.8,347.2 2460,347.2 2460,355.2 L2460,441.6 C2460,449.6 2214.8,449.6 2214.8,449.6 C2214.8,449.6 1969.6,449.6 1969.6,441.6 L1969.6,355.2 " fill="none" style="stroke:#181818;stroke-width:0.8;"/><path d="M1969.6,355.2 C1969.6,363.2 2214.8,363.2 2214.8,363.2 C2214.8,363.2 2460,363.2 2460,355.2 " fill="none" style="stroke:#181818;stroke-width:0.8;"/><text fill="#000000" font-family="sans-serif" font-size="11.2" font-weight="bold" lengthAdjust="spacing" textLength="67.2656" x="2181.1672" y="375.1961">Audit Logs</text></g><!--cluster External Services--><g id="cluster_External Services"><polygon fill="#808080" points="1951.2,51.2,1959.2,43.2,2495.2,43.2,2495.2,116.8,2487.2,124.8,1951.2,124.8,1951.2,51.2" style="stroke:#181818;stroke-width:0.8;"/><line style="stroke:#181818;stroke-width:0.8;" x1="2487.2" x2="2495.2" y1="51.2" y2="43.2"/><line style="stroke:#181818;stroke-width:0.8;" x1="1951.2" x2="2487.2" y1="51.2" y2="51.2"/><line style="stroke:#181818;stroke-width:0.8;" x1="2487.2" x2="2487.2" y1="51.2" y2="124.8"/><text fill="#000000" font-family="sans-serif" font-size="11.2" font-weight="bold" lengthAdjust="spacing" textLength="109.8453" x="2165.0773" y="63.9961">External Services</text></g><!--entity wb--><g id="elem_wb"><rect fill="#F1F1F1" height="37.0375" rx="2" ry="2" style="stroke:#181818;stroke-width:0.4;" width="111.2313" x="1271.6" y="75.2"/><rect fill="#F1F1F1" height="8" style="stroke:#181818;stroke-width:0.4;" width="12" x="1366.8313" y="79.2"/><rect fill="#F1F1F1" height="1.6" style="stroke:#181818;stroke-width:0.4;" width="3.2" x="1365.2313" y="80.8"/><rect fill="#F1F1F1" height="1.6" style="stroke:#181818;stroke-width:0.4;" width="3.2" x="1365.2313" y="84"/><text fill="#000000" font-family="sans-serif" font-size="11.2" lengthAdjust="spacing" textLength="79.2313" x="1283.6" y="101.5961">User Interface</text></g><!--entity ma--><g id="elem_ma"><rect fill="#F1F1F1" height="37.0375" rx="2" ry="2" style="stroke:#181818;stroke-width:0.4;" width="94.1797" x="1148.8" y="75.2"/><rect fill="#F1F1F1" height="8" style="stroke:#181818;stroke-width:0.4;" width="12" x="1226.9797" y="79.2"/><rect fill="#F1F1F1" height="1.6" style="stroke:#181818;stroke-width:0.4;" width="3.2" x="1225.3797" y="80.8"/><rect fill="#F1F1F1" height="1.6" style="stroke:#181818;stroke-width:0.4;" width="3.2" x="1225.3797" y="84"/><text fill="#000000" font-family="sans-serif" font-size="11.2" lengthAdjust="spacing" textLength="62.1797" x="1160.8" y="101.5961">Mobile App</text></g><!--entity cf--><g id="elem_cf"><rect fill="#F1F1F1" height="37.0375" rx="2" ry="2" style="stroke:#181818;stroke-width:0.4;" width="138.9797" x="981.6" y="75.2"/><rect fill="#F1F1F1" height="8" style="stroke:#181818;stroke-width:0.4;" width="12" x="1104.5797" y="79.2"/><rect fill="#F1F1F1" height="1.6" style="stroke:#181818;stroke-width:0.4;" width="3.2" x="1102.9797" y="80.8"/><rect fill="#F1F1F1" height="1.6" style="stroke:#181818;stroke-width:0.4;" width="3.2" x="1102.9797" y="84"/><text fill="#000000" font-family="sans-serif" font-size="11.2" lengthAdjust="spacing" textLength="106.9797" x="993.6" y="101.5961">Customer Features</text></g><!--entity ad--><g id="elem_ad"><rect fill="#F1F1F1" height="37.0375" rx="2" ry="2" style="stroke:#181818;stroke-width:0.4;" width="132.4117" x="804" y="75.2"/><rect fill="#F1F1F1" height="8" style="stroke:#181818;stroke-width:0.4;" width="12" x="920.4117" y="79.2"/><rect fill="#F1F1F1" height="1.6" style="stroke:#181818;stroke-width:0.4;" width="3.2" x="918.8117" y="80.8"/><rect fill="#F1F1F1" height="1.6" style="stroke:#181818;stroke-width:0.4;" width="3.2" x="918.8117" y="84"/><text fill="#000000" font-family="sans-serif" font-size="11.2" lengthAdjust="spacing" textLength="100.4117" x="816" y="101.5961">Admin Dashboard</text></g><!--entity sm--><g id="elem_sm"><rect fill="#F1F1F1" height="37.0375" rx="2" ry="2" style="stroke:#181818;stroke-width:0.4;" width="137.2188" x="638.4" y="75.2"/><rect fill="#F1F1F1" height="8" style="stroke:#181818;stroke-width:0.4;" width="12" x="759.6188" y="79.2"/><rect fill="#F1F1F1" height="1.6" style="stroke:#181818;stroke-width:0.4;" width="3.2" x="758.0188" y="80.8"/><rect fill="#F1F1F1" height="1.6" style="stroke:#181818;stroke-width:0.4;" width="3.2" x="758.0188" y="84"/><text fill="#000000" font-family="sans-serif" font-size="11.2" lengthAdjust="spacing" textLength="105.2188" x="650.4" y="101.5961">System Monitoring</text></g><!--entity rt--><g id="elem_rt"><rect fill="#F1F1F1" height="37.0375" rx="2" ry="2" style="stroke:#181818;stroke-width:0.4;" width="120.0031" x="490.4" y="75.2"/><rect fill="#F1F1F1" height="8" style="stroke:#181818;stroke-width:0.4;" width="12" x="594.4031" y="79.2"/><rect fill="#F1F1F1" height="1.6" style="stroke:#181818;stroke-width:0.4;" width="3.2" x="592.8031" y="80.8"/><rect fill="#F1F1F1" height="1.6" style="stroke:#181818;stroke-width:0.4;" width="3.2" x="592.8031" y="84"/><text fill="#000000" font-family="sans-serif" font-size="11.2" lengthAdjust="spacing" textLength="88.0031" x="502.4" y="101.5961">Reporting Tools</text></g><!--entity wms--><g id="elem_wms"><rect fill="#F1F1F1" height="37.0375" rx="2" ry="2" style="stroke:#181818;stroke-width:0.4;" width="159.7281" x="1428" y="75.2"/><rect fill="#F1F1F1" height="8" style="stroke:#181818;stroke-width:0.4;" width="12" x="1571.7281" y="79.2"/><rect fill="#F1F1F1" height="1.6" style="stroke:#181818;stroke-width:0.4;" width="3.2" x="1570.1281" y="80.8"/><rect fill="#F1F1F1" height="1.6" style="stroke:#181818;stroke-width:0.4;" width="3.2" x="1570.1281" y="84"/><text fill="#000000" font-family="sans-serif" font-size="11.2" lengthAdjust="spacing" textLength="127.7281" x="1440" y="101.5961">Warehouse Dashboard</text></g><!--entity ps--><g id="elem_ps"><rect fill="#F1F1F1" height="37.0375" rx="2" ry="2" style="stroke:#181818;stroke-width:0.4;" width="117.1375" x="1616" y="75.2"/><rect fill="#F1F1F1" height="8" style="stroke:#181818;stroke-width:0.4;" width="12" x="1717.1375" y="79.2"/><rect fill="#F1F1F1" height="1.6" style="stroke:#181818;stroke-width:0.4;" width="3.2" x="1715.5375" y="80.8"/><rect fill="#F1F1F1" height="1.6" style="stroke:#181818;stroke-width:0.4;" width="3.2" x="1715.5375" y="84"/><text fill="#000000" font-family="sans-serif" font-size="11.2" lengthAdjust="spacing" textLength="85.1375" x="1628" y="101.5961">Package Sorter</text></g><!--entity im--><g id="elem_im"><rect fill="#F1F1F1" height="37.0375" rx="2" ry="2" style="stroke:#181818;stroke-width:0.4;" width="138.1484" x="1761.2" y="75.2"/><rect fill="#F1F1F1" height="8" style="stroke:#181818;stroke-width:0.4;" width="12" x="1883.3484" y="79.2"/><rect fill="#F1F1F1" height="1.6" style="stroke:#181818;stroke-width:0.4;" width="3.2" x="1881.7484" y="80.8"/><rect fill="#F1F1F1" height="1.6" style="stroke:#181818;stroke-width:0.4;" width="3.2" x="1881.7484" y="84"/><text fill="#000000" font-family="sans-serif" font-size="11.2" lengthAdjust="spacing" textLength="106.1484" x="1773.2" y="101.5961">Inventory Manager</text></g><!--entity da--><g id="elem_da"><rect fill="#F1F1F1" height="37.0375" rx="2" ry="2" style="stroke:#181818;stroke-width:0.4;" width="103.9305" x="44.8" y="75.2"/><rect fill="#F1F1F1" height="8" style="stroke:#181818;stroke-width:0.4;" width="12" x="132.7305" y="79.2"/><rect fill="#F1F1F1" height="1.6" style="stroke:#181818;stroke-width:0.4;" width="3.2" x="131.1305" y="80.8"/><rect fill="#F1F1F1" height="1.6" style="stroke:#181818;stroke-width:0.4;" width="3.2" x="131.1305" y="84"/><text fill="#000000" font-family="sans-serif" font-size="11.2" lengthAdjust="spacing" textLength="71.9305" x="56.8" y="101.5961">Delivery App</text></g><!--entity psc--><g id="elem_psc"><rect fill="#F1F1F1" height="37.0375" rx="2" ry="2" style="stroke:#181818;stroke-width:0.4;" width="128.507" x="177.2" y="75.2"/><rect fill="#F1F1F1" height="8" style="stroke:#181818;stroke-width:0.4;" width="12" x="289.707" y="79.2"/><rect fill="#F1F1F1" height="1.6" style="stroke:#181818;stroke-width:0.4;" width="3.2" x="288.107" y="80.8"/><rect fill="#F1F1F1" height="1.6" style="stroke:#181818;stroke-width:0.4;" width="3.2" x="288.107" y="84"/><text fill="#000000" font-family="sans-serif" font-size="11.2" lengthAdjust="spacing" textLength="96.507" x="189.2" y="101.5961">Package Scanner</text></g><!--entity rp--><g id="elem_rp"><rect fill="#F1F1F1" height="37.0375" rx="2" ry="2" style="stroke:#181818;stroke-width:0.4;" width="110.9961" x="334" y="75.2"/><rect fill="#F1F1F1" height="8" style="stroke:#181818;stroke-width:0.4;" width="12" x="428.9961" y="79.2"/><rect fill="#F1F1F1" height="1.6" style="stroke:#181818;stroke-width:0.4;" width="3.2" x="427.3961" y="80.8"/><rect fill="#F1F1F1" height="1.6" style="stroke:#181818;stroke-width:0.4;" width="3.2" x="427.3961" y="84"/><text fill="#000000" font-family="sans-serif" font-size="11.2" lengthAdjust="spacing" textLength="78.9961" x="346" y="101.5961">Route Planner</text></g><!--entity pm--><g id="elem_pm"><rect fill="#F1F1F1" height="37.0375" rx="2" ry="2" style="stroke:#181818;stroke-width:0.4;" width="144.607" x="1135.6" y="233.6"/><rect fill="#F1F1F1" height="8" style="stroke:#181818;stroke-width:0.4;" width="12" x="1264.207" y="237.6"/><rect fill="#F1F1F1" height="1.6" style="stroke:#181818;stroke-width:0.4;" width="3.2" x="1262.607" y="239.2"/><rect fill="#F1F1F1" height="1.6" style="stroke:#181818;stroke-width:0.4;" width="3.2" x="1262.607" y="242.4"/><text fill="#000000" font-family="sans-serif" font-size="11.2" lengthAdjust="spacing" textLength="112.607" x="1147.6" y="259.9961">Profile Management</text></g><!--entity auth--><g id="elem_auth"><rect fill="#F1F1F1" height="37.0375" rx="2" ry="2" style="stroke:#181818;stroke-width:0.4;" width="103.2031" x="1004.4" y="233.6"/><rect fill="#F1F1F1" height="8" style="stroke:#181818;stroke-width:0.4;" width="12" x="1091.6031" y="237.6"/><rect fill="#F1F1F1" height="1.6" style="stroke:#181818;stroke-width:0.4;" width="3.2" x="1090.0031" y="239.2"/><rect fill="#F1F1F1" height="1.6" style="stroke:#181818;stroke-width:0.4;" width="3.2" x="1090.0031" y="242.4"/><text fill="#000000" font-family="sans-serif" font-size="11.2" lengthAdjust="spacing" textLength="71.2031" x="1016.4" y="259.9961">Auth Service</text></g><!--entity jwt--><g id="elem_jwt"><rect fill="#F1F1F1" height="37.0375" rx="2" ry="2" style="stroke:#181818;stroke-width:0.4;" width="105.8719" x="870.4" y="233.6"/><rect fill="#F1F1F1" height="8" style="stroke:#181818;stroke-width:0.4;" width="12" x="960.2719" y="237.6"/><rect fill="#F1F1F1" height="1.6" style="stroke:#181818;stroke-width:0.4;" width="3.2" x="958.6719" y="239.2"/><rect fill="#F1F1F1" height="1.6" style="stroke:#181818;stroke-width:0.4;" width="3.2" x="958.6719" y="242.4"/><text fill="#000000" font-family="sans-serif" font-size="11.2" lengthAdjust="spacing" textLength="73.8719" x="882.4" y="259.9961">JWT Manager</text></g><!--entity st--><g id="elem_st"><rect fill="#F1F1F1" height="37.0375" rx="2" ry="2" style="stroke:#181818;stroke-width:0.4;" width="131.7281" x="1607.6" y="233.6"/><rect fill="#F1F1F1" height="8" style="stroke:#181818;stroke-width:0.4;" width="12" x="1723.3281" y="237.6"/><rect fill="#F1F1F1" height="1.6" style="stroke:#181818;stroke-width:0.4;" width="3.2" x="1721.7281" y="239.2"/><rect fill="#F1F1F1" height="1.6" style="stroke:#181818;stroke-width:0.4;" width="3.2" x="1721.7281" y="242.4"/><text fill="#000000" font-family="sans-serif" font-size="11.2" lengthAdjust="spacing" textLength="99.7281" x="1619.6" y="259.9961">Shipment Tracker</text></g><!--entity ae--><g id="elem_ae"><rect fill="#F1F1F1" height="37.0375" rx="2" ry="2" style="stroke:#181818;stroke-width:0.4;" width="124.8047" x="1768" y="233.6"/><rect fill="#F1F1F1" height="8" style="stroke:#181818;stroke-width:0.4;" width="12" x="1876.8047" y="237.6"/><rect fill="#F1F1F1" height="1.6" style="stroke:#181818;stroke-width:0.4;" width="3.2" x="1875.2047" y="239.2"/><rect fill="#F1F1F1" height="1.6" style="stroke:#181818;stroke-width:0.4;" width="3.2" x="1875.2047" y="242.4"/><text fill="#000000" font-family="sans-serif" font-size="11.2" lengthAdjust="spacing" textLength="92.8047" x="1780" y="259.9961">Analytics Engine</text></g><!--entity js--><g id="elem_js"><rect fill="#F1F1F1" height="37.0375" rx="2" ry="2" style="stroke:#181818;stroke-width:0.4;" width="108.8961" x="1470.4" y="233.6"/><rect fill="#F1F1F1" height="8" style="stroke:#181818;stroke-width:0.4;" width="12" x="1563.2961" y="237.6"/><rect fill="#F1F1F1" height="1.6" style="stroke:#181818;stroke-width:0.4;" width="3.2" x="1561.6961" y="239.2"/><rect fill="#F1F1F1" height="1.6" style="stroke:#181818;stroke-width:0.4;" width="3.2" x="1561.6961" y="242.4"/><text fill="#000000" font-family="sans-serif" font-size="11.2" lengthAdjust="spacing" textLength="76.8961" x="1482.4" y="259.9961">Job Scheduler</text></g><!--entity ss--><g id="elem_ss"><rect fill="#F1F1F1" height="37.0375" rx="2" ry="2" style="stroke:#181818;stroke-width:0.4;" width="115.6773" x="1326" y="233.6"/><rect fill="#F1F1F1" height="8" style="stroke:#181818;stroke-width:0.4;" width="12" x="1425.6773" y="237.6"/><rect fill="#F1F1F1" height="1.6" style="stroke:#181818;stroke-width:0.4;" width="3.2" x="1424.0773" y="239.2"/><rect fill="#F1F1F1" height="1.6" style="stroke:#181818;stroke-width:0.4;" width="3.2" x="1424.0773" y="242.4"/><text fill="#000000" font-family="sans-serif" font-size="11.2" lengthAdjust="spacing" textLength="83.6773" x="1338" y="259.9961">Search Service</text></g><!--entity nm--><g id="elem_nm"><rect fill="#F1F1F1" height="37.0375" rx="2" ry="2" style="stroke:#181818;stroke-width:0.4;" width="148.9164" x="1675.2" y="393.6"/><rect fill="#F1F1F1" height="8" style="stroke:#181818;stroke-width:0.4;" width="12" x="1808.1164" y="397.6"/><rect fill="#F1F1F1" height="1.6" style="stroke:#181818;stroke-width:0.4;" width="3.2" x="1806.5164" y="399.2"/><rect fill="#F1F1F1" height="1.6" style="stroke:#181818;stroke-width:0.4;" width="3.2" x="1806.5164" y="402.4"/><text fill="#000000" font-family="sans-serif" font-size="11.2" lengthAdjust="spacing" textLength="116.9164" x="1687.2" y="419.9961">Notification Manager</text></g><!--entity es--><g id="elem_es"><rect fill="#F1F1F1" height="37.0375" rx="2" ry="2" style="stroke:#181818;stroke-width:0.4;" width="108.0266" x="1494.8" y="478.4"/><rect fill="#F1F1F1" height="8" style="stroke:#181818;stroke-width:0.4;" width="12" x="1586.8266" y="482.4"/><rect fill="#F1F1F1" height="1.6" style="stroke:#181818;stroke-width:0.4;" width="3.2" x="1585.2266" y="484"/><rect fill="#F1F1F1" height="1.6" style="stroke:#181818;stroke-width:0.4;" width="3.2" x="1585.2266" y="487.2"/><text fill="#000000" font-family="sans-serif" font-size="11.2" lengthAdjust="spacing" textLength="76.0266" x="1506.8" y="504.7961">Email Service</text></g><!--entity sms--><g id="elem_sms"><rect fill="#F1F1F1" height="37.0375" rx="2" ry="2" style="stroke:#181818;stroke-width:0.4;" width="100.8352" x="1631.2" y="478.4"/><rect fill="#F1F1F1" height="8" style="stroke:#181818;stroke-width:0.4;" width="12" x="1716.0352" y="482.4"/><rect fill="#F1F1F1" height="1.6" style="stroke:#181818;stroke-width:0.4;" width="3.2" x="1714.4352" y="484"/><rect fill="#F1F1F1" height="1.6" style="stroke:#181818;stroke-width:0.4;" width="3.2" x="1714.4352" y="487.2"/><text fill="#000000" font-family="sans-serif" font-size="11.2" lengthAdjust="spacing" textLength="68.8352" x="1643.2" y="504.7961">SMS Service</text></g><!--entity pn--><g id="elem_pn"><rect fill="#F1F1F1" height="37.0375" rx="2" ry="2" style="stroke:#181818;stroke-width:0.4;" width="132.4445" x="1760" y="478.4"/><rect fill="#F1F1F1" height="8" style="stroke:#181818;stroke-width:0.4;" width="12" x="1876.4445" y="482.4"/><rect fill="#F1F1F1" height="1.6" style="stroke:#181818;stroke-width:0.4;" width="3.2" x="1874.8445" y="484"/><rect fill="#F1F1F1" height="1.6" style="stroke:#181818;stroke-width:0.4;" width="3.2" x="1874.8445" y="487.2"/><text fill="#000000" font-family="sans-serif" font-size="11.2" lengthAdjust="spacing" textLength="100.4445" x="1772" y="504.7961">Push Notifications</text></g><!--entity Data Backups" as dbs : "Stores regular backups of critical data--><g id="elem_Data Backups&quot; as dbs : &quot;Stores regular backups of critical data"><rect fill="#F1F1F1" height="37.0375" rx="2" ry="2" style="stroke:#181818;stroke-width:0.4;" width="384.5648" x="2094.8" y="770.4"/><rect fill="#F1F1F1" height="8" style="stroke:#181818;stroke-width:0.4;" width="12" x="2463.3648" y="774.4"/><rect fill="#F1F1F1" height="1.6" style="stroke:#181818;stroke-width:0.4;" width="3.2" x="2461.7648" y="776"/><rect fill="#F1F1F1" height="1.6" style="stroke:#181818;stroke-width:0.4;" width="3.2" x="2461.7648" y="779.2"/><text fill="#000000" font-family="sans-serif" font-size="11.2" lengthAdjust="spacing" textLength="352.5648" x="2106.8" y="796.7961">Data Backups" as dbs : "Stores regular backups of critical data</text></g><!--entity Logistics Data" as ld : "Stores shipment and delivery details--><g id="elem_Logistics Data&quot; as ld : &quot;Stores shipment and delivery details"><rect fill="#F1F1F1" height="37.0375" rx="2" ry="2" style="stroke:#181818;stroke-width:0.4;" width="367.9125" x="2508" y="619.2"/><rect fill="#F1F1F1" height="8" style="stroke:#181818;stroke-width:0.4;" width="12" x="2859.9125" y="623.2"/><rect fill="#F1F1F1" height="1.6" style="stroke:#181818;stroke-width:0.4;" width="3.2" x="2858.3125" y="624.8"/><rect fill="#F1F1F1" height="1.6" style="stroke:#181818;stroke-width:0.4;" width="3.2" x="2858.3125" y="628"/><text fill="#000000" font-family="sans-serif" font-size="11.2" lengthAdjust="spacing" textLength="335.9125" x="2520" y="645.5961">Logistics Data" as ld : "Stores shipment and delivery details</text></g><!--entity User Data" as ud : "Stores user profiles, roles, and preferences--><g id="elem_User Data&quot; as ud : &quot;Stores user profiles, roles, and preferences"><rect fill="#F1F1F1" height="37.0375" rx="2" ry="2" style="stroke:#181818;stroke-width:0.4;" width="384.8273" x="2094.8" y="619.2"/><rect fill="#F1F1F1" height="8" style="stroke:#181818;stroke-width:0.4;" width="12" x="2463.6273" y="623.2"/><rect fill="#F1F1F1" height="1.6" style="stroke:#181818;stroke-width:0.4;" width="3.2" x="2462.0273" y="624.8"/><rect fill="#F1F1F1" height="1.6" style="stroke:#181818;stroke-width:0.4;" width="3.2" x="2462.0273" y="628"/><text fill="#000000" font-family="sans-serif" font-size="11.2" lengthAdjust="spacing" textLength="352.8273" x="2106.8" y="645.5961">User Data" as ud : "Stores user profiles, roles, and preferences</text></g><!--entity Session Data" as sd : "Stores active session information for quick access--><g id="elem_Session Data&quot; as sd : &quot;Stores active session information for quick access"><rect fill="#F1F1F1" height="37.0375" rx="2" ry="2" style="stroke:#181818;stroke-width:0.4;" width="439.482" x="2526.8" y="393.6"/><rect fill="#F1F1F1" height="8" style="stroke:#181818;stroke-width:0.4;" width="12" x="2950.282" y="397.6"/><rect fill="#F1F1F1" height="1.6" style="stroke:#181818;stroke-width:0.4;" width="3.2" x="2948.682" y="399.2"/><rect fill="#F1F1F1" height="1.6" style="stroke:#181818;stroke-width:0.4;" width="3.2" x="2948.682" y="402.4"/><text fill="#000000" font-family="sans-serif" font-size="11.2" lengthAdjust="spacing" textLength="407.482" x="2538.8" y="419.9961">Session Data" as sd : "Stores active session information for quick access</text></g><!--entity Transaction Logs" as tl : "Stores system audit trails and transaction logs--><g id="elem_Transaction Logs&quot; as tl : &quot;Stores system audit trails and transaction logs"><rect fill="#F1F1F1" height="37.0375" rx="2" ry="2" style="stroke:#181818;stroke-width:0.4;" width="437.1086" x="2004" y="393.6"/><rect fill="#F1F1F1" height="8" style="stroke:#181818;stroke-width:0.4;" width="12" x="2425.1086" y="397.6"/><rect fill="#F1F1F1" height="1.6" style="stroke:#181818;stroke-width:0.4;" width="3.2" x="2423.5086" y="399.2"/><rect fill="#F1F1F1" height="1.6" style="stroke:#181818;stroke-width:0.4;" width="3.2" x="2423.5086" y="402.4"/><text fill="#000000" font-family="sans-serif" font-size="11.2" lengthAdjust="spacing" textLength="405.1086" x="2016" y="419.9961">Transaction Logs" as tl : "Stores system audit trails and transaction logs</text></g><!--entity ca--><g id="elem_ca"><rect fill="#F1F1F1" height="37.0375" rx="2" ry="2" style="stroke:#181818;stroke-width:0.4;" width="91.7789" x="2126" y="75.2"/><rect fill="#F1F1F1" height="8" style="stroke:#181818;stroke-width:0.4;" width="12" x="2201.7789" y="79.2"/><rect fill="#F1F1F1" height="1.6" style="stroke:#181818;stroke-width:0.4;" width="3.2" x="2200.1789" y="80.8"/><rect fill="#F1F1F1" height="1.6" style="stroke:#181818;stroke-width:0.4;" width="3.2" x="2200.1789" y="84"/><text fill="#000000" font-family="sans-serif" font-size="11.2" lengthAdjust="spacing" textLength="59.7789" x="2138" y="101.5961">Carrier API</text></g><!--entity pg--><g id="elem_pg"><rect fill="#F1F1F1" height="37.0375" rx="2" ry="2" style="stroke:#181818;stroke-width:0.4;" width="134.5719" x="1964" y="75.2"/><rect fill="#F1F1F1" height="8" style="stroke:#181818;stroke-width:0.4;" width="12" x="2082.5719" y="79.2"/><rect fill="#F1F1F1" height="1.6" style="stroke:#181818;stroke-width:0.4;" width="3.2" x="2080.9719" y="80.8"/><rect fill="#F1F1F1" height="1.6" style="stroke:#181818;stroke-width:0.4;" width="3.2" x="2080.9719" y="84"/><text fill="#000000" font-family="sans-serif" font-size="11.2" lengthAdjust="spacing" textLength="102.5719" x="1976" y="101.5961">Payment Gateway</text></g><!--entity ms--><g id="elem_ms"><rect fill="#F1F1F1" height="37.0375" rx="2" ry="2" style="stroke:#181818;stroke-width:0.4;" width="106.4242" x="2375.6" y="75.2"/><rect fill="#F1F1F1" height="8" style="stroke:#181818;stroke-width:0.4;" width="12" x="2466.0242" y="79.2"/><rect fill="#F1F1F1" height="1.6" style="stroke:#181818;stroke-width:0.4;" width="3.2" x="2464.4242" y="80.8"/><rect fill="#F1F1F1" height="1.6" style="stroke:#181818;stroke-width:0.4;" width="3.2" x="2464.4242" y="84"/><text fill="#000000" font-family="sans-serif" font-size="11.2" lengthAdjust="spacing" textLength="74.4242" x="2387.6" y="101.5961">Maps Service</text></g><!--entity wa--><g id="elem_wa"><rect fill="#F1F1F1" height="37.0375" rx="2" ry="2" style="stroke:#181818;stroke-width:0.4;" width="101.0922" x="2246.4" y="75.2"/><rect fill="#F1F1F1" height="8" style="stroke:#181818;stroke-width:0.4;" width="12" x="2331.4922" y="79.2"/><rect fill="#F1F1F1" height="1.6" style="stroke:#181818;stroke-width:0.4;" width="3.2" x="2329.8922" y="80.8"/><rect fill="#F1F1F1" height="1.6" style="stroke:#181818;stroke-width:0.4;" width="3.2" x="2329.8922" y="84"/><text fill="#000000" font-family="sans-serif" font-size="11.2" lengthAdjust="spacing" textLength="69.0922" x="2258.4" y="101.5961">Weather API</text></g><!--link wb to auth--><g id="link_wb_auth"><path d="M1276,112.216 C1276,139.104 1276,185.6 1276,185.6 C1276,185.6 1056,185.6 1056,185.6 C1056,185.6 1056,209.056 1056,228.704 " fill="none" id="wb-to-auth" style="stroke:#181818;stroke-width:0.8;"/><polygon fill="#181818" points="1056,233.504,1059.2,226.304,1056,229.504,1052.8,226.304,1056,233.504" style="stroke:#181818;stroke-width:0.8;"/><text fill="#000000" font-family="sans-serif" font-size="10.4" lengthAdjust="spacing" textLength="66.8992" x="1111.536" y="196.0535">Authenticate</text></g><!--link ma to auth--><g id="link_ma_auth"><path d="M1148.544,93.6 C1137.144,93.6 1128.2,93.6 1128.2,93.6 C1128.2,93.6 1128.2,252 1128.2,252 C1128.2,252 1124.08,252 1112.504,252 " fill="none" id="ma-to-auth" style="stroke:#181818;stroke-width:0.8;"/><polygon fill="#181818" points="1107.704,252,1114.904,255.2,1111.704,252,1114.904,248.8,1107.704,252" style="stroke:#181818;stroke-width:0.8;"/><text fill="#000000" font-family="sans-serif" font-size="10.4" lengthAdjust="spacing" textLength="66.8992" x="1061" y="169.7335">Authenticate</text></g><!--link ad to auth--><g id="link_ad_auth"><path d="M936.888,93.6 C959.328,93.6 978.8,93.6 978.8,93.6 C978.8,93.6 978.8,252 978.8,252 C978.8,252 985.432,252 999.496,252 " fill="none" id="ad-to-auth" style="stroke:#181818;stroke-width:0.8;"/><polygon fill="#181818" points="1004.296,252,997.096,248.8,1000.296,252,997.096,255.2,1004.296,252" style="stroke:#181818;stroke-width:0.8;"/><text fill="#000000" font-family="sans-serif" font-size="10.4" lengthAdjust="spacing" textLength="66.8992" x="911.6" y="161.4455">Authenticate</text></g><!--link da to auth--><g id="link_da_auth"><path d="M96.8,112.168 C96.8,123.88 96.8,136.8 96.8,136.8 C96.8,136.8 1030.2,136.8 1030.2,136.8 C1030.2,136.8 1030.2,196.128 1030.2,228.688 " fill="none" id="da-to-auth" style="stroke:#181818;stroke-width:0.8;"/><polygon fill="#181818" points="1030.2,233.488,1033.4,226.288,1030.2,229.488,1027,226.288,1030.2,233.488" style="stroke:#181818;stroke-width:0.8;"/><text fill="#000000" font-family="sans-serif" font-size="10.4" lengthAdjust="spacing" textLength="66.8992" x="532.328" y="133.6535">Authenticate</text></g><!--link wms to auth--><g id="link_wms_auth"><path d="M1435,112.24 C1435,145.024 1435,209.6 1435,209.6 C1435,209.6 1081.8,209.6 1081.8,209.6 C1081.8,209.6 1081.8,217.304 1081.8,228.728 " fill="none" id="wms-to-auth" style="stroke:#181818;stroke-width:0.8;"/><polygon fill="#181818" points="1081.8,233.528,1085,226.328,1081.8,229.528,1078.6,226.328,1081.8,233.528" style="stroke:#181818;stroke-width:0.8;"/><text fill="#000000" font-family="sans-serif" font-size="10.4" lengthAdjust="spacing" textLength="66.8992" x="1227.92" y="206.4535">Authenticate</text></g><!--link st to db--><g id="link_st_db"><path d="M1653.2,270.64 C1653.2,319.296 1653.2,446.4 1653.2,446.4 C1653.2,446.4 2081,446.4 2081,446.4 C2081,446.4 2081,494.2 2081,542 C2081,547.975 2081,553.95 2081,559.8316 C2081,562.7725 2081,565.6899 2081,568.5724 C2081,569.293 2081,570.0115 2081,570.7275 C2081,571.0855 2081,566.643 2081,566.9998 " fill="none" id="st-to-db" style="stroke:#181818;stroke-width:0.8;"/><polygon fill="#181818" points="2081,571.7998,2084.2,564.5998,2081,567.7998,2077.8,564.5998,2081,571.7998" style="stroke:#181818;stroke-width:0.8;"/><text fill="#000000" font-family="sans-serif" font-size="10.4" lengthAdjust="spacing" textLength="117.1117" x="1764.336" y="443.2535">Access Shipment Data</text></g><!--link st to rc--><g id="link_st_rc"><path d="M1707.4,270.552 C1707.4,294.184 1707.4,332 1707.4,332 C1707.4,332 2489.8,332 2489.8,332 C2489.8,332 2489.8,412 2489.8,412 C2489.8,412 2490.2115,412 2490.8545,412 C2491.176,412 2486.7554,412 2487.1701,412 " fill="none" id="st-to-rc" style="stroke:#181818;stroke-width:0.8;"/><polygon fill="#181818" points="2491.9701,412,2484.7701,408.8,2487.9701,412,2484.7701,415.2,2491.9701,412" style="stroke:#181818;stroke-width:0.8;"/><text fill="#000000" font-family="sans-serif" font-size="10.4" lengthAdjust="spacing" textLength="75.8063" x="2035.992" y="328.8535">Cache Queries</text></g><!--link ps to st--><g id="link_ps_st"><path d="M1674.4,112.08 C1674.4,142.52 1674.4,198.072 1674.4,228.592 " fill="none" id="ps-to-st" style="stroke:#181818;stroke-width:0.8;"/><polygon fill="#181818" points="1674.4,233.392,1677.6,226.192,1674.4,229.392,1671.2,226.192,1674.4,233.392" style="stroke:#181818;stroke-width:0.8;"/><text fill="#000000" font-family="sans-serif" font-size="10.4" lengthAdjust="spacing" textLength="65.2133" x="1608.8" y="169.5895">Fetch Status</text></g><!--link psc to rp--><g id="link_psc_rp"><path d="M306.088,93.6 C315.352,93.6 320.024,93.6 329.104,93.6 " fill="none" id="psc-to-rp" style="stroke:#181818;stroke-width:0.8;"/><polygon fill="#181818" points="333.904,93.6,326.704,90.4,329.904,93.6,326.704,96.8,333.904,93.6" style="stroke:#181818;stroke-width:0.8;"/><text fill="#000000" font-family="sans-serif" font-size="10.4" lengthAdjust="spacing" textLength="74.1102" x="283.192" y="104.0535">Update Status</text></g><!--link rp to ms--><g id="link_rp_ms"><path d="M371.064,75.024 C371.064,65.544 371.064,56 371.064,56 C371.064,56 2428.8,56 2428.8,56 C2428.8,56 2428.8,60.744 2428.8,70.224 " fill="none" id="rp-to-ms" style="stroke:#181818;stroke-width:0.8;"/><polygon fill="#181818" points="2428.8,75.024,2432,67.824,2428.8,71.024,2425.6,67.824,2428.8,75.024" style="stroke:#181818;stroke-width:0.8;"/><text fill="#000000" font-family="sans-serif" font-size="10.4" lengthAdjust="spacing" textLength="62.7301" x="1336.736" y="52.8535">Fetch Route</text></g><!--link rp to wa--><g id="link_rp_wa"><path d="M408.136,75.08 C408.136,69.872 408.136,65.6 408.136,65.6 C408.136,65.6 2296.8,65.6 2296.8,65.6 C2296.8,65.6 2296.8,65.072 2296.8,70.28 " fill="none" id="rp-to-wa" style="stroke:#181818;stroke-width:0.8;"/><polygon fill="#181818" points="2296.8,75.08,2300,67.88,2296.8,71.08,2293.6,67.88,2296.8,75.08" style="stroke:#181818;stroke-width:0.8;"/><text fill="#000000" font-family="sans-serif" font-size="10.4" lengthAdjust="spacing" textLength="66.2391" x="1286.064" y="62.4535">Get Weather</text></g><!--link im to db--><g id="link_im_db"><path d="M1897.904,112.24 C1897.904,191.536 1897.904,496.8 1897.904,496.8 C1897.904,496.8 2066.136,496.8 2066.136,496.8 C2066.136,496.8 2066.136,529.834 2066.136,563.901 C2066.136,566.0302 2066.136,568.1634 2066.136,570.2929 C2066.136,570.8252 2066.136,571.3573 2066.136,571.8891 C2066.136,572.155 2066.136,567.6208 2066.136,567.8865 " fill="none" id="im-to-db" style="stroke:#181818;stroke-width:0.8;"/><polygon fill="#181818" points="2066.136,572.6865,2069.336,565.4865,2066.136,568.6865,2062.936,565.4865,2066.136,572.6865" style="stroke:#181818;stroke-width:0.8;"/><text fill="#000000" font-family="sans-serif" font-size="10.4" lengthAdjust="spacing" textLength="116.9035" x="1780.304" y="469.2855">Access Inventory Data</text></g><!--link im to rc--><g id="link_im_rc"><path d="M1894.496,112.32 C1894.496,132.2 1894.496,160.8 1894.496,160.8 C1894.496,160.8 2498.4,160.8 2498.4,160.8 C2498.4,160.8 2498.4,220.69 2498.4,281.984 C2498.4,297.3075 2498.4,312.7188 2498.4,327.3039 C2498.4,330.9502 2498.4,334.5449 2498.4,338.0736 C2498.4,339.838 2498.4,341.5859 2498.4,343.3155 C2498.4,344.1803 2498.4,345.0406 2498.4,345.896 C2498.4,346.3238 2498.4,341.9503 2498.4,342.3756 " fill="none" id="im-to-rc" style="stroke:#181818;stroke-width:0.8;"/><polygon fill="#181818" points="2498.4,347.1756,2501.6,339.9756,2498.4,343.1756,2495.2,339.9756,2498.4,347.1756" style="stroke:#181818;stroke-width:0.8;"/><text fill="#000000" font-family="sans-serif" font-size="10.4" lengthAdjust="spacing" textLength="78.8023" x="2218.408" y="157.6535">Cache Lookups</text></g><!--link im to ae--><g id="link_im_ae"><path d="M1809.6,112.08 C1809.6,142.52 1809.6,198.072 1809.6,228.592 " fill="none" id="im-to-ae" style="stroke:#181818;stroke-width:0.8;"/><polygon fill="#181818" points="1809.6,233.392,1812.8,226.192,1809.6,229.392,1806.4,226.192,1809.6,233.392" style="stroke:#181818;stroke-width:0.8;"/><text fill="#000000" font-family="sans-serif" font-size="10.4" lengthAdjust="spacing" textLength="92.2391" x="1716.8" y="169.5895">Generate Reports</text></g><!--link ae to im--><g id="link_ae_im"><path d="M1851.2,233.52 C1851.2,203.08 1851.2,147.528 1851.2,117.008 " fill="none" id="ae-to-im" style="stroke:#181818;stroke-width:0.8;"/><polygon fill="#181818" points="1851.2,112.208,1848,119.408,1851.2,116.208,1854.4,119.408,1851.2,112.208" style="stroke:#181818;stroke-width:0.8;"/><text fill="#000000" font-family="sans-serif" font-size="10.4" lengthAdjust="spacing" textLength="93.6355" x="1756.8" y="183.3175">Inventory Insights</text></g><!--link ae to db--><g id="link_ae_db"><path d="M1893.024,246.4 C1895.04,246.4 1896.2,246.4 1896.2,246.4 C1896.2,246.4 1896.2,637.6 1896.2,637.6 C1896.2,637.6 1936.132,637.6 1977.312,637.6 C1997.902,637.6 2018.804,637.6 2035.1825,637.6 C2043.3718,637.6 2050.4301,637.6 2055.7532,637.6 C2057.084,637.6 2058.3063,637.6 2059.4107,637.6 C2059.5487,637.6 2054.8849,637.6 2055.0193,637.6 " fill="none" id="ae-to-db" style="stroke:#181818;stroke-width:0.8;"/><polygon fill="#181818" points="2059.8193,637.6,2052.6193,634.4,2055.8193,637.6,2052.6193,640.8,2059.8193,637.6" style="stroke:#181818;stroke-width:0.8;"/><text fill="#000000" font-family="sans-serif" font-size="10.4" lengthAdjust="spacing" textLength="82.5805" x="1813" y="535.7255">Aggregate Data</text></g><!--link ae to al--><g id="link_ae_al"><path d="M1892.992,258.4 C1932.456,258.4 1976,258.4 1976,258.4 C1976,258.4 1976,294.438 1976,331.602 C1976,336.2475 1976,340.9106 1976,345.5231 C1976,345.8114 1976,341.2995 1976,341.5873 " fill="none" id="ae-to-al" style="stroke:#181818;stroke-width:0.8;"/><polygon fill="#181818" points="1976,346.3873,1979.2,339.1873,1976,342.3873,1972.8,339.1873,1976,346.3873" style="stroke:#181818;stroke-width:0.8;"/><text fill="#000000" font-family="sans-serif" font-size="10.4" lengthAdjust="spacing" textLength="68.4633" x="1907.2" y="290.3255">Analyze Logs</text></g><!--link nm to es--><g id="link_nm_es"><path d="M1674.984,412 C1635.624,412 1595.4,412 1595.4,412 C1595.4,412 1595.4,448.656 1595.4,473.6 " fill="none" id="nm-to-es" style="stroke:#181818;stroke-width:0.8;"/><polygon fill="#181818" points="1595.4,478.4,1598.6,471.2,1595.4,474.4,1592.2,471.2,1595.4,478.4" style="stroke:#181818;stroke-width:0.8;"/><text fill="#000000" font-family="sans-serif" font-size="10.4" lengthAdjust="spacing" textLength="63.7711" x="1537.992" y="408.8535">Send Emails</text></g><!--link nm to sms--><g id="link_nm_sms"><path d="M1703.6,430.4 C1703.6,444.528 1703.6,459.152 1703.6,473.344 " fill="none" id="nm-to-sms" style="stroke:#181818;stroke-width:0.8;"/><polygon fill="#181818" points="1703.6,478.144,1706.8,470.944,1703.6,474.144,1700.4,470.944,1703.6,478.144" style="stroke:#181818;stroke-width:0.8;"/><text fill="#000000" font-family="sans-serif" font-size="10.4" lengthAdjust="spacing" textLength="51.675" x="1651.6" y="451.1255">Send SMS</text></g><!--link nm to pn--><g id="link_nm_pn"><path d="M1792,430.4 C1792,444.528 1792,459.152 1792,473.344 " fill="none" id="nm-to-pn" style="stroke:#181818;stroke-width:0.8;"/><polygon fill="#181818" points="1792,478.144,1795.2,470.944,1792,474.144,1788.8,470.944,1792,478.144" style="stroke:#181818;stroke-width:0.8;"/><text fill="#000000" font-family="sans-serif" font-size="10.4" lengthAdjust="spacing" textLength="122.7688" x="1668.8" y="464.7255">Send Push Notifications</text></g><!--reverse link ae to nm--><g id="link_ae_nm"><path d="M1796,275.464 C1796,306.296 1796,362.696 1796,393.448 " fill="none" id="ae-backto-nm" style="stroke:#181818;stroke-width:0.8;"/><polygon fill="#181818" points="1796,270.664,1792.8,277.864,1796,274.664,1799.2,277.864,1796,270.664" style="stroke:#181818;stroke-width:0.8;"/><text fill="#000000" font-family="sans-serif" font-size="10.4" lengthAdjust="spacing" textLength="100.3742" x="1695.2" y="328.9095">Trigger Notification</text></g><!--link db to bs--><g id="link_db_bs"><path d="M2066.4,675.7666 C2066.4,676.011 2066.4,676.2561 2066.4,676.5019 C2066.4,676.9935 2066.4,677.4879 2066.4,677.9848 C2066.4,678.9788 2066.4,679.9832 2066.4,680.997 C2066.4,683.0248 2066.4,685.0906 2066.4,687.1868 C2066.4,695.5714 2066.4,704.4423 2066.4,713.311 C2066.4,715.5282 2066.4,717.7452 2066.4,719.9545 C2066.4,721.0592 2066.4,722.1619 2066.4,723.2617 C2066.4,723.3992 2066.4,718.7366 2066.4,718.874 " fill="none" id="db-to-bs" style="stroke:#181818;stroke-width:0.8;stroke-dasharray:7.0,7.0;"/><polygon fill="#181818" points="2066.4,723.674,2069.6,716.474,2066.4,719.674,2063.2,716.474,2066.4,723.674" style="stroke:#181818;stroke-width:0.8;"/><text fill="#000000" font-family="sans-serif" font-size="10.4" lengthAdjust="spacing" textLength="86.1555" x="1980" y="710.0695">Data Replication</text></g><!--link rc to db--><g id="link_rc_db"><path d="M2498.4,449.7148 C2498.4,450.3762 2498.4,451.0222 2498.4,451.65 C2498.4,452.9058 2498.4,454.0893 2498.4,455.1791 C2498.4,459.5385 2498.4,462.4 2498.4,462.4 C2498.4,462.4 2066.664,462.4 2066.664,462.4 C2066.664,462.4 2066.664,504.842 2066.664,547.947 C2066.664,553.3351 2066.664,558.7336 2066.664,564.0609 C2066.664,566.7245 2066.664,564.5703 2066.664,567.1881 " fill="none" id="rc-to-db" style="stroke:#181818;stroke-width:0.8;stroke-dasharray:7.0,7.0;"/><polygon fill="#181818" points="2066.664,571.9881,2069.864,564.7881,2066.664,567.9881,2063.464,564.7881,2066.664,571.9881" style="stroke:#181818;stroke-width:0.8;"/><text fill="#000000" font-family="sans-serif" font-size="10.4" lengthAdjust="spacing" textLength="60.7141" x="2159.232" y="459.2535">Cache Sync</text></g><!--SRC=[XLPDR-Cs4BthLn3QGozDiEYfo661hFE1574tZRrOz4XBOvaDHQea5LTRx7_l8sbBL4mtljZMF0xVpBoPaQsu9FRnyjUYi2z2TTpmbcruzT8OtQjweQKsp1ckB4oaN8AgTDjfXMShDy17tyfV4giKYjpG4TF6xNHH_CGMKW3C7lb0fb2w9bRU6QqSgJe-BDc_1SCdsXQzTRebmnu0CLjUKSa-F8fcv-uDaJfW_MSamiglTdw0MxRVv81BlH4WVTrr0TJo76YaS4VSzOPim5RRWFsHSBskMw5EYNwMFULvnWCttEuscfiw-ELr3haQhAEMBRKIJXkXce2rRGxxJ1so3GnRQoqZM-DEs7v39NUwjpHZ_2JKIvxiX9yJthSs1t-2UdX3R0KklgX0TbdWWth5jpO3MtA54n4hsXF2DoJ5Am6NylsJfDJxFEFnmB6-DVzVfXLNQgHQPLEhUqViIKv0qnru_l3YNf5v5HNDr3rxDXVtTUzsy2igxeHMY6RrCfnNovFHMw_McAOMpoBLh0YywoETg2iyo05_-xQU9Vwl_QbK5jhGqPazolgyKbOxqNbwR6sGseDVwx8q5PS34c3PhMemAo9LoXBL6vHeHtKlZrIpUbeHDzKyTcjFGlfTEx4z93uDxGk6N7Ec0BCpQSvKjWItBHToneFoX9UhETip3TNR7KifnCxkL2h06-uuMujHVE7_2jq5hc-Zgs7RSFHp-Hbbwhi91xSRUwQdlCE8Z_VNG5uX29mbj0CrlUGcx0uWcDwooWYlS1dkAvD2JFSlUHY3yU_1Q_xwHzq86_JYuG4gw-H-UvGUnpgfZ_rVaqCfR7bsLupE-jHPxqrTx3hxCpCwV7dFdQ4jOH5wpMGZUgPQMBRWq6iS4zMPLY5hlPf60ZObm2k709WzW8JQQjD6-U4N-xiNrGj0O766ndLV2-nQtSHQeGXP5ck_sVrbS3o2dKpp6lSF3_xm8e1iXaIuvAJq9rCntlw3EOq67_lh8CgJvr3clU73WLowUhan43ExVdg8IvSN9yDx2FM-vuxsV8WjqRn5BJcqcFROeSNIzORblakkslCOn1VJS2M-KyqM6bC_X0ghm7Z5G7QwmeejzXjsKUkzklWKvgnFN3BRgInQ_Ww0r-y0wlSyO0-_WoYi6n5eC6yFsc7Zm0uoJ67GxPKl0tJC_kW9nK29k-aYG66_8-SdhiFhKJ1NxCBu5U4TT1xmjOCcQKJWuGXexUGXhDUvUS-z-PuSEnIeB4IRZs9waOXX9BWqZ4Ujm_0AzkCrdE8rMEkUQ7o50WO2UBkYO9Hn_XOuzOP9qs02UW-HGWBWePs2i-yKkooOZmp0vYfz6NfGrbiYX-osAjGK8CKXx5-Ymzh1iSHgsycCRJEpTMeqPJPCGFRTcA4rw6BhpL3bk7WCTVB8ifgwfK1oBYylFx6uAWBqUOAYu5MqnoJ6Cgq6LPN_0G00]--></g></svg>