<svg xmlns="http://www.w3.org/2000/svg" xmlns:xlink="http://www.w3.org/1999/xlink" contentStyleType="text/css" height="1052px" preserveAspectRatio="none" style="width:1221px;height:1052px;background:#FFFFFF;" version="1.1" viewBox="0 0 1221 1052" width="1221px" zoomAndPan="magnify"><defs/><g><rect fill="#FFFFFF" height="145.6641" style="stroke:#000000;stroke-width:1;" width="10" x="234.8193" y="148.5625"/><rect fill="#FFFFFF" height="364.5938" style="stroke:#000000;stroke-width:1;" width="10" x="234.8193" y="597.5547"/><rect fill="#FFFFFF" height="29.1328" style="stroke:#000000;stroke-width:1;" width="10" x="410.0249" y="235.9609"/><rect fill="#FFFFFF" height="335.4609" style="stroke:#000000;stroke-width:1;" width="10" x="410.0249" y="626.6875"/><rect fill="#FFFFFF" height="29.1328" style="stroke:#000000;stroke-width:1;" width="10" x="575.4517" y="177.6953"/><rect fill="#FFFFFF" height="116.5313" style="stroke:#000000;stroke-width:1;" width="10" x="575.4517" y="568.4219"/><rect fill="#FFFFFF" height="87.3984" style="stroke:#000000;stroke-width:1;" width="10" x="575.4517" y="778.3516"/><rect fill="#FFFFFF" height="145.6641" style="stroke:#000000;stroke-width:1;" width="10" x="849.3447" y="358.4922"/><rect fill="#FFFFFF" height="145.6641" style="stroke:#000000;stroke-width:1;" width="10" x="849.3447" y="749.2188"/><rect fill="#FFFFFF" height="29.1328" style="stroke:#000000;stroke-width:1;" width="10" x="1031.1675" y="387.625"/><rect fill="#FFFFFF" height="29.1328" style="stroke:#000000;stroke-width:1;" width="10" x="1169.835" y="807.4844"/><line style="stroke:#000000;stroke-width:1;" x1="74" x2="74" y1="82.2969" y2="971.1484"/><line style="stroke:#000000;stroke-width:1;" x1="239.5459" x2="239.5459" y1="82.2969" y2="971.1484"/><line style="stroke:#000000;stroke-width:1;" x1="414.7573" x2="414.7573" y1="82.2969" y2="971.1484"/><line style="stroke:#000000;stroke-width:1;" x1="580.2925" x2="580.2925" y1="82.2969" y2="971.1484"/><line style="stroke:#000000;stroke-width:1;" x1="687.6108" x2="687.6108" y1="82.2969" y2="971.1484"/><line style="stroke:#000000;stroke-width:1;" x1="854.1299" x2="854.1299" y1="82.2969" y2="971.1484"/><line style="stroke:#000000;stroke-width:1;" x1="1035.5596" x2="1035.5596" y1="82.2969" y2="971.1484"/><line style="stroke:#000000;stroke-width:1;" x1="1174.7754" x2="1174.7754" y1="82.2969" y2="971.1484"/><text fill="#000000" font-family="Verdana" font-size="14" lengthAdjust="spacing" textLength="68.0039" x="37" y="78.9951">Customer</text><ellipse cx="74.002" cy="14" fill="#FFFFFF" rx="8" ry="8" style="stroke:#000000;stroke-width:1;"/><path d="M74.002,22 L74.002,49 M61.002,30 L87.002,30 M74.002,49 L61.002,64 M74.002,49 L87.002,64 " fill="none" style="stroke:#000000;stroke-width:1;"/><text fill="#000000" font-family="Verdana" font-size="14" lengthAdjust="spacing" textLength="68.0039" x="37" y="983.1436">Customer</text><ellipse cx="74.002" cy="995.4453" fill="#FFFFFF" rx="8" ry="8" style="stroke:#000000;stroke-width:1;"/><path d="M74.002,1003.4453 L74.002,1030.4453 M61.002,1011.4453 L87.002,1011.4453 M74.002,1030.4453 L61.002,1045.4453 M74.002,1030.4453 L87.002,1045.4453 " fill="none" style="stroke:#000000;stroke-width:1;"/><rect fill="#FFFFFF" height="30.2969" rx="2.5" ry="2.5" style="stroke:#000000;stroke-width:1;" width="126.5469" x="176.5459" y="51"/><text fill="#000000" font-family="Verdana" font-size="14" lengthAdjust="spacing" textLength="112.5469" x="183.5459" y="70.9951">TrackingSystem</text><rect fill="#FFFFFF" height="30.2969" rx="2.5" ry="2.5" style="stroke:#000000;stroke-width:1;" width="126.5469" x="176.5459" y="970.1484"/><text fill="#000000" font-family="Verdana" font-size="14" lengthAdjust="spacing" textLength="112.5469" x="183.5459" y="990.1436">TrackingSystem</text><rect fill="#FFFFFF" height="30.2969" rx="2.5" ry="2.5" style="stroke:#000000;stroke-width:1;" width="146.5352" x="341.7573" y="51"/><text fill="#000000" font-family="Verdana" font-size="14" lengthAdjust="spacing" textLength="132.5352" x="348.7573" y="70.9951">NotificationSystem</text><rect fill="#FFFFFF" height="30.2969" rx="2.5" ry="2.5" style="stroke:#000000;stroke-width:1;" width="146.5352" x="341.7573" y="970.1484"/><text fill="#000000" font-family="Verdana" font-size="14" lengthAdjust="spacing" textLength="132.5352" x="348.7573" y="990.1436">NotificationSystem</text><rect fill="#FFFFFF" height="30.2969" rx="2.5" ry="2.5" style="stroke:#000000;stroke-width:1;" width="124.3184" x="518.2925" y="51"/><text fill="#000000" font-family="Verdana" font-size="14" lengthAdjust="spacing" textLength="110.3184" x="525.2925" y="70.9951">DeliverySystem</text><rect fill="#FFFFFF" height="30.2969" rx="2.5" ry="2.5" style="stroke:#000000;stroke-width:1;" width="124.3184" x="518.2925" y="970.1484"/><text fill="#000000" font-family="Verdana" font-size="14" lengthAdjust="spacing" textLength="110.3184" x="525.2925" y="990.1436">DeliverySystem</text><text fill="#000000" font-family="Verdana" font-size="14" lengthAdjust="spacing" textLength="44.8643" x="662.6108" y="78.9951">Admin</text><ellipse cx="688.043" cy="14" fill="#FFFFFF" rx="8" ry="8" style="stroke:#000000;stroke-width:1;"/><path d="M688.043,22 L688.043,49 M675.043,30 L701.043,30 M688.043,49 L675.043,64 M688.043,49 L701.043,64 " fill="none" style="stroke:#000000;stroke-width:1;"/><text fill="#000000" font-family="Verdana" font-size="14" lengthAdjust="spacing" textLength="44.8643" x="662.6108" y="983.1436">Admin</text><ellipse cx="688.043" cy="995.4453" fill="#FFFFFF" rx="8" ry="8" style="stroke:#000000;stroke-width:1;"/><path d="M688.043,1003.4453 L688.043,1030.4453 M675.043,1011.4453 L701.043,1011.4453 M688.043,1030.4453 L675.043,1045.4453 M688.043,1030.4453 L701.043,1045.4453 " fill="none" style="stroke:#000000;stroke-width:1;"/><rect fill="#FFFFFF" height="30.2969" rx="2.5" ry="2.5" style="stroke:#000000;stroke-width:1;" width="158.4297" x="775.1299" y="51"/><text fill="#000000" font-family="Verdana" font-size="14" lengthAdjust="spacing" textLength="144.4297" x="782.1299" y="70.9951">SystemManagement</text><rect fill="#FFFFFF" height="30.2969" rx="2.5" ry="2.5" style="stroke:#000000;stroke-width:1;" width="158.4297" x="775.1299" y="970.1484"/><text fill="#000000" font-family="Verdana" font-size="14" lengthAdjust="spacing" textLength="144.4297" x="782.1299" y="990.1436">SystemManagement</text><rect fill="#FFFFFF" height="30.2969" rx="2.5" ry="2.5" style="stroke:#000000;stroke-width:1;" width="145.2158" x="963.5596" y="51"/><text fill="#000000" font-family="Verdana" font-size="14" lengthAdjust="spacing" textLength="131.2158" x="970.5596" y="70.9951">WarehouseSystem</text><rect fill="#FFFFFF" height="30.2969" rx="2.5" ry="2.5" style="stroke:#000000;stroke-width:1;" width="145.2158" x="963.5596" y="970.1484"/><text fill="#000000" font-family="Verdana" font-size="14" lengthAdjust="spacing" textLength="131.2158" x="970.5596" y="990.1436">WarehouseSystem</text><text fill="#000000" font-family="Verdana" font-size="14" lengthAdjust="spacing" textLength="86.1191" x="1128.7754" y="78.9951">DeliveryGuy</text><ellipse cx="1174.835" cy="14" fill="#FFFFFF" rx="8" ry="8" style="stroke:#000000;stroke-width:1;"/><path d="M1174.835,22 L1174.835,49 M1161.835,30 L1187.835,30 M1174.835,49 L1161.835,64 M1174.835,49 L1187.835,64 " fill="none" style="stroke:#000000;stroke-width:1;"/><text fill="#000000" font-family="Verdana" font-size="14" lengthAdjust="spacing" textLength="86.1191" x="1128.7754" y="983.1436">DeliveryGuy</text><ellipse cx="1174.835" cy="995.4453" fill="#FFFFFF" rx="8" ry="8" style="stroke:#000000;stroke-width:1;"/><path d="M1174.835,1003.4453 L1174.835,1030.4453 M1161.835,1011.4453 L1187.835,1011.4453 M1174.835,1030.4453 L1161.835,1045.4453 M1174.835,1030.4453 L1187.835,1045.4453 " fill="none" style="stroke:#000000;stroke-width:1;"/><rect fill="#FFFFFF" height="145.6641" style="stroke:#000000;stroke-width:1;" width="10" x="234.8193" y="148.5625"/><rect fill="#FFFFFF" height="364.5938" style="stroke:#000000;stroke-width:1;" width="10" x="234.8193" y="597.5547"/><rect fill="#FFFFFF" height="29.1328" style="stroke:#000000;stroke-width:1;" width="10" x="410.0249" y="235.9609"/><rect fill="#FFFFFF" height="335.4609" style="stroke:#000000;stroke-width:1;" width="10" x="410.0249" y="626.6875"/><rect fill="#FFFFFF" height="29.1328" style="stroke:#000000;stroke-width:1;" width="10" x="575.4517" y="177.6953"/><rect fill="#FFFFFF" height="116.5313" style="stroke:#000000;stroke-width:1;" width="10" x="575.4517" y="568.4219"/><rect fill="#FFFFFF" height="87.3984" style="stroke:#000000;stroke-width:1;" width="10" x="575.4517" y="778.3516"/><rect fill="#FFFFFF" height="145.6641" style="stroke:#000000;stroke-width:1;" width="10" x="849.3447" y="358.4922"/><rect fill="#FFFFFF" height="145.6641" style="stroke:#000000;stroke-width:1;" width="10" x="849.3447" y="749.2188"/><rect fill="#FFFFFF" height="29.1328" style="stroke:#000000;stroke-width:1;" width="10" x="1031.1675" y="387.625"/><rect fill="#FFFFFF" height="29.1328" style="stroke:#000000;stroke-width:1;" width="10" x="1169.835" y="807.4844"/><path d="M10,97.2969 L10,122.2969 L480,122.2969 L480,107.2969 L470,97.2969 L10,97.2969 " fill="#EDF2AE" style="stroke:#000000;stroke-width:1;"/><path d="M470,97.2969 L470,107.2969 L480,107.2969 L470,97.2969 " fill="#EDF2AE" style="stroke:#000000;stroke-width:1;"/><text fill="#000000" font-family="Verdana" font-size="13" lengthAdjust="spacing" textLength="449.2744" x="16" y="114.3638">Customer Core Scenario: Tracking a shipment and receiving updates</text><polygon fill="#000000" points="222.8193,144.5625,232.8193,148.5625,222.8193,152.5625,226.8193,148.5625" style="stroke:#000000;stroke-width:1;"/><line style="stroke:#000000;stroke-width:1;" x1="74.002" x2="228.8193" y1="148.5625" y2="148.5625"/><text fill="#000000" font-family="Verdana" font-size="13" lengthAdjust="spacing" textLength="102.4131" x="103.2041" y="143.4966">Track Shipment</text><polygon fill="#000000" points="563.4517,173.6953,573.4517,177.6953,563.4517,181.6953,567.4517,177.6953" style="stroke:#000000;stroke-width:1;"/><line style="stroke:#000000;stroke-width:1;" x1="244.8193" x2="569.4517" y1="177.6953" y2="177.6953"/><text fill="#000000" font-family="Verdana" font-size="13" lengthAdjust="spacing" textLength="122.1987" x="349.0361" y="172.6294">Get Current Status</text><polygon fill="#000000" points="255.8193,202.8281,245.8193,206.8281,255.8193,210.8281,251.8193,206.8281" style="stroke:#000000;stroke-width:1;"/><line style="stroke:#000000;stroke-width:1;stroke-dasharray:2.0,2.0;" x1="249.8193" x2="579.4517" y1="206.8281" y2="206.8281"/><text fill="#000000" font-family="Verdana" font-size="13" lengthAdjust="spacing" textLength="89.5083" x="367.8813" y="201.7622">Return Status</text><polygon fill="#000000" points="398.0249,231.9609,408.0249,235.9609,398.0249,239.9609,402.0249,235.9609" style="stroke:#000000;stroke-width:1;"/><line style="stroke:#000000;stroke-width:1;" x1="244.8193" x2="404.0249" y1="235.9609" y2="235.9609"/><text fill="#000000" font-family="Verdana" font-size="13" lengthAdjust="spacing" textLength="139.0391" x="257.9026" y="230.895">Subscribe to Updates</text><polygon fill="#000000" points="85.002,261.0938,75.002,265.0938,85.002,269.0938,81.002,265.0938" style="stroke:#000000;stroke-width:1;"/><line style="stroke:#000000;stroke-width:1;stroke-dasharray:2.0,2.0;" x1="79.002" x2="414.0249" y1="265.0938" y2="265.0938"/><text fill="#000000" font-family="Verdana" font-size="13" lengthAdjust="spacing" textLength="136.373" x="176.3269" y="260.0278">Confirm Subscription</text><polygon fill="#000000" points="85.002,290.2266,75.002,294.2266,85.002,298.2266,81.002,294.2266" style="stroke:#000000;stroke-width:1;"/><line style="stroke:#000000;stroke-width:1;stroke-dasharray:2.0,2.0;" x1="79.002" x2="238.8193" y1="294.2266" y2="294.2266"/><text fill="#000000" font-family="Verdana" font-size="13" lengthAdjust="spacing" textLength="136.8174" x="88.502" y="289.1606">Display Tracking Info</text><path d="M636,307.2266 L636,332.2266 L1087,332.2266 L1087,317.2266 L1077,307.2266 L636,307.2266 " fill="#EDF2AE" style="stroke:#000000;stroke-width:1;"/><path d="M1077,307.2266 L1077,317.2266 L1087,317.2266 L1077,307.2266 " fill="#EDF2AE" style="stroke:#000000;stroke-width:1;"/><text fill="#000000" font-family="Verdana" font-size="13" lengthAdjust="spacing" textLength="417.2759" x="648.4443" y="324.2935">Admin Core Scenario: Managing shipments and system updates</text><polygon fill="#000000" points="837.3447,354.4922,847.3447,358.4922,837.3447,362.4922,841.3447,358.4922" style="stroke:#000000;stroke-width:1;"/><line style="stroke:#000000;stroke-width:1;" x1="688.043" x2="843.3447" y1="358.4922" y2="358.4922"/><text fill="#000000" font-family="Verdana" font-size="13" lengthAdjust="spacing" textLength="142.3018" x="697.543" y="353.4263">Update Shipment Info</text><polygon fill="#000000" points="1019.1675,383.625,1029.1675,387.625,1019.1675,391.625,1023.1675,387.625" style="stroke:#000000;stroke-width:1;"/><line style="stroke:#000000;stroke-width:1;" x1="859.3447" x2="1025.1675" y1="387.625" y2="387.625"/><text fill="#000000" font-family="Verdana" font-size="13" lengthAdjust="spacing" textLength="103.7144" x="893.3989" y="382.5591">Update Records</text><polygon fill="#000000" points="870.3447,412.7578,860.3447,416.7578,870.3447,420.7578,866.3447,416.7578" style="stroke:#000000;stroke-width:1;"/><line style="stroke:#000000;stroke-width:1;stroke-dasharray:2.0,2.0;" x1="864.3447" x2="1035.1675" y1="416.7578" y2="416.7578"/><text fill="#000000" font-family="Verdana" font-size="13" lengthAdjust="spacing" textLength="102.6797" x="896.4163" y="411.6919">Confirm Update</text><polygon fill="#000000" points="426.0249,441.8906,416.0249,445.8906,426.0249,449.8906,422.0249,445.8906" style="stroke:#000000;stroke-width:1;"/><line style="stroke:#000000;stroke-width:1;" x1="420.0249" x2="848.3447" y1="445.8906" y2="445.8906"/><text fill="#000000" font-family="Verdana" font-size="13" lengthAdjust="spacing" textLength="176.6807" x="543.8445" y="440.8247">Trigger Update Notification</text><polygon fill="#000000" points="85.002,471.0234,75.002,475.0234,85.002,479.0234,81.002,475.0234" style="stroke:#000000;stroke-width:1;"/><line style="stroke:#000000;stroke-width:1;" x1="79.002" x2="414.0249" y1="475.0234" y2="475.0234"/><text fill="#000000" font-family="Verdana" font-size="13" lengthAdjust="spacing" textLength="129.5112" x="179.7578" y="469.9575">Send Status Update</text><polygon fill="#000000" points="699.043,500.1563,689.043,504.1563,699.043,508.1563,695.043,504.1563" style="stroke:#000000;stroke-width:1;"/><line style="stroke:#000000;stroke-width:1;stroke-dasharray:2.0,2.0;" x1="693.043" x2="853.3447" y1="504.1563" y2="504.1563"/><text fill="#000000" font-family="Verdana" font-size="13" lengthAdjust="spacing" textLength="113.8643" x="714.2617" y="499.0903">Update Complete</text><path d="M34,517.1563 L34,542.1563 L1212,542.1563 L1212,527.1563 L1202,517.1563 L34,517.1563 " fill="#EDF2AE" style="stroke:#000000;stroke-width:1;"/><path d="M1202,517.1563 L1202,527.1563 L1212,527.1563 L1202,517.1563 " fill="#EDF2AE" style="stroke:#000000;stroke-width:1;"/><text fill="#000000" font-family="Verdana" font-size="13" lengthAdjust="spacing" textLength="403.8315" x="417.0315" y="534.2231">Delivery Guy Core Scenario: Managing deliveries and updates</text><polygon fill="#000000" points="596.4517,564.4219,586.4517,568.4219,596.4517,572.4219,592.4517,568.4219" style="stroke:#000000;stroke-width:1;"/><line style="stroke:#000000;stroke-width:1;" x1="590.4517" x2="1173.835" y1="568.4219" y2="568.4219"/><text fill="#000000" font-family="Verdana" font-size="13" lengthAdjust="spacing" textLength="150.7314" x="804.7776" y="563.356">Update Delivery Status</text><polygon fill="#000000" points="255.8193,593.5547,245.8193,597.5547,255.8193,601.5547,251.8193,597.5547" style="stroke:#000000;stroke-width:1;"/><line style="stroke:#000000;stroke-width:1;" x1="249.8193" x2="574.4517" y1="597.5547" y2="597.5547"/><text fill="#000000" font-family="Verdana" font-size="13" lengthAdjust="spacing" textLength="107.2437" x="356.5137" y="592.4888">Update Tracking</text><polygon fill="#000000" points="398.0249,622.6875,408.0249,626.6875,398.0249,630.6875,402.0249,626.6875" style="stroke:#000000;stroke-width:1;"/><line style="stroke:#000000;stroke-width:1;" x1="244.8193" x2="404.0249" y1="626.6875" y2="626.6875"/><text fill="#000000" font-family="Verdana" font-size="13" lengthAdjust="spacing" textLength="146.2056" x="254.3193" y="621.6216">Trigger Status Change</text><polygon fill="#000000" points="85.002,651.8203,75.002,655.8203,85.002,659.8203,81.002,655.8203" style="stroke:#000000;stroke-width:1;"/><line style="stroke:#000000;stroke-width:1;" x1="79.002" x2="409.0249" y1="655.8203" y2="655.8203"/><text fill="#000000" font-family="Verdana" font-size="13" lengthAdjust="spacing" textLength="142.0479" x="170.9895" y="650.7544">Send Delivery Update</text><polygon fill="#000000" points="1162.835,680.9531,1172.835,684.9531,1162.835,688.9531,1166.835,684.9531" style="stroke:#000000;stroke-width:1;"/><line style="stroke:#000000;stroke-width:1;stroke-dasharray:2.0,2.0;" x1="580.4517" x2="1168.835" y1="684.9531" y2="684.9531"/><text fill="#000000" font-family="Verdana" font-size="13" lengthAdjust="spacing" textLength="148.2368" x="803.5249" y="679.8872">Confirm Status Update</text><path d="M505,697.9531 L505,722.9531 L1110,722.9531 L1110,707.9531 L1100,697.9531 L505,697.9531 " fill="#EDF2AE" style="stroke:#000000;stroke-width:1;"/><path d="M1100,697.9531 L1100,707.9531 L1110,707.9531 L1100,697.9531 " fill="#EDF2AE" style="stroke:#000000;stroke-width:1;"/><text fill="#000000" font-family="Verdana" font-size="13" lengthAdjust="spacing" textLength="480.5303" x="562.9763" y="715.02">Warehouse Core Scenario: Managing inventory and shipment preparation</text><polygon fill="#000000" points="870.3447,745.2188,860.3447,749.2188,870.3447,753.2188,866.3447,749.2188" style="stroke:#000000;stroke-width:1;"/><line style="stroke:#000000;stroke-width:1;" x1="864.3447" x2="1035.1675" y1="749.2188" y2="749.2188"/><text fill="#000000" font-family="Verdana" font-size="13" lengthAdjust="spacing" textLength="113.3057" x="891.1033" y="744.1528">Update Inventory</text><polygon fill="#000000" points="596.4517,774.3516,586.4517,778.3516,596.4517,782.3516,592.4517,778.3516" style="stroke:#000000;stroke-width:1;"/><line style="stroke:#000000;stroke-width:1;" x1="590.4517" x2="848.3447" y1="778.3516" y2="778.3516"/><text fill="#000000" font-family="Verdana" font-size="13" lengthAdjust="spacing" textLength="106.4883" x="664.1541" y="773.2856">Schedule Pickup</text><polygon fill="#000000" points="1157.835,803.4844,1167.835,807.4844,1157.835,811.4844,1161.835,807.4844" style="stroke:#000000;stroke-width:1;"/><line style="stroke:#000000;stroke-width:1;" x1="585.4517" x2="1163.835" y1="807.4844" y2="807.4844"/><text fill="#000000" font-family="Verdana" font-size="13" lengthAdjust="spacing" textLength="100.6357" x="827.3254" y="802.4185">Assign Delivery</text><polygon fill="#000000" points="596.4517,832.6172,586.4517,836.6172,596.4517,840.6172,592.4517,836.6172" style="stroke:#000000;stroke-width:1;"/><line style="stroke:#000000;stroke-width:1;stroke-dasharray:2.0,2.0;" x1="590.4517" x2="1173.835" y1="836.6172" y2="836.6172"/><text fill="#000000" font-family="Verdana" font-size="13" lengthAdjust="spacing" textLength="132.1392" x="814.0737" y="831.5513">Confirm Assignment</text><polygon fill="#000000" points="837.3447,861.75,847.3447,865.75,837.3447,869.75,841.3447,865.75" style="stroke:#000000;stroke-width:1;"/><line style="stroke:#000000;stroke-width:1;stroke-dasharray:2.0,2.0;" x1="580.4517" x2="843.3447" y1="865.75" y2="865.75"/><text fill="#000000" font-family="Verdana" font-size="13" lengthAdjust="spacing" textLength="115.3369" x="657.2297" y="860.6841">Confirm Schedule</text><polygon fill="#000000" points="1024.1675,890.8828,1034.1675,894.8828,1024.1675,898.8828,1028.1675,894.8828" style="stroke:#000000;stroke-width:1;"/><line style="stroke:#000000;stroke-width:1;stroke-dasharray:2.0,2.0;" x1="854.3447" x2="1030.1675" y1="894.8828" y2="894.8828"/><text fill="#000000" font-family="Verdana" font-size="13" lengthAdjust="spacing" textLength="113.8643" x="888.324" y="889.8169">Update Complete</text><polygon fill="#000000" points="431.0249,920.0156,421.0249,924.0156,431.0249,928.0156,427.0249,924.0156" style="stroke:#000000;stroke-width:1;"/><line style="stroke:#000000;stroke-width:1;" x1="425.0249" x2="579.4517" y1="924.0156" y2="924.0156"/><text fill="#000000" font-family="Verdana" font-size="13" lengthAdjust="spacing" textLength="114.5688" x="442.9539" y="918.9497">Send Pickup Alert</text><polygon fill="#000000" points="85.002,949.1484,75.002,953.1484,85.002,957.1484,81.002,953.1484" style="stroke:#000000;stroke-width:1;"/><line style="stroke:#000000;stroke-width:1;" x1="79.002" x2="409.0249" y1="953.1484" y2="953.1484"/><text fill="#000000" font-family="Verdana" font-size="13" lengthAdjust="spacing" textLength="166.5562" x="158.7354" y="948.0825">Notify Estimated Delivery</text><!--SRC=[ZLNBRjim4BppArZq6ElIemy55DaDSaXGH2bwPgIrJ5WY5JuS-E-x8aMPakWqHtCVipipQtqpH-Y0zYtZWkWJ5prJhACQtYs82fv0QzP0tl96q0g40HLbAT2z53fatKChFtAbv0SroaAK-2mDtBFgr2XfHLt8LYhwVR_xzIFV4q9OPV1tORMH7VR74iChtZDXwAl2AYwQyg8DTBCGzkG7NZ73fKY4Tz3oCwZB6F8OUTtXcd6Q3pynWVDtkDyi-9SfE4ghOTOaT7wm5q84RaOb_fpctoGcsqvHMaW5j4GgcU9oEor86TL7tWyZK2PgfBO2VXu2jg-P0Kt8r2BxkU25tjsDdMWvDY6B3AoPC-9g7i3WP4eDgALXncgooChMO5csfIzWh1AXPesrfi3XbVPDLug_0JMI_XaNI-GEgDTr4Q-Gui1L5nhqG-uATbcqunfzVRbo_2WECfRCsM6pb7dhtvTAEOyCNO9EsWcbFVYaag_5KPRESWJudIUL_4IhJAnUp1GNlq0bLQt9CYLBWSRa-VeaNCgohuet3R8qmiOfISskxAFGWDHuTzo6nOgHhMnQhf1TtmAcHp951xU9CC8pnVUROjK-YODNQv8fwddZDiQ19fGRzv6ynR4sHBv-887paRhYo4G3NsDx6dJaEt78iwNZgve95J6_iDXcmTFscd1J02xEABR4kTor1EFt2ePFWpFJsicVNyzZQ9cqSaBAiZf2RLkWltbridr2mvYPeIBNUlZYXUUvNTOWCPc-rFq79oJuz433dEbRMT_x-chMcwKks_d5Sq7p5fJvhyDS_4Btsl0E0Qzk-mS0]--></g></svg>